{"glyphs":{"0":{"ha":937,"x_min":151,"x_max":977,"o":"m 441 -25 q 230 75 309 -25 q 151 344 151 175 q 308 825 151 621 q 679 1029 465 1029 q 898 929 819 1029 q 977 654 977 829 q 819 176 977 377 q 441 -25 660 -25 m 497 50 q 729 223 629 50 q 829 621 829 395 q 626 952 829 952 q 396 781 494 952 q 298 381 298 610 q 497 50 298 50 z "},"1":{"ha":937,"x_min":214,"x_max":835,"o":"m 753 1030 l 572 103 q 686 113 646 113 q 805 86 775 113 q 835 -24 835 58 q 738 0 799 0 q 575 -12 671 0 l 477 -24 q 352 -42 431 -30 q 301 -46 326 -46 q 214 81 227 -46 q 285 64 250 64 q 433 81 358 64 l 583 837 q 406 782 471 782 q 308 908 308 782 l 308 927 q 402 891 349 891 q 704 1007 491 891 q 753 1030 713 1012 z "},"2":{"ha":937,"x_min":160,"x_max":895,"o":"m 895 -18 q 614 29 791 29 q 325 7 469 29 l 283 1 q 209 -8 225 -8 q 160 51 160 -8 q 165 106 160 70 q 560 460 395 256 q 726 797 726 664 q 581 928 726 928 q 291 741 416 928 q 283 804 283 780 q 393 957 283 886 q 630 1029 504 1029 q 807 976 740 1029 q 874 838 874 924 q 322 127 874 586 q 705 159 553 159 q 852 127 817 159 q 895 -18 886 95 z "},"3":{"ha":937,"x_min":204,"x_max":887,"o":"m 349 486 q 473 586 391 586 q 544 576 503 586 q 751 806 751 642 q 706 909 751 869 q 588 949 660 949 q 403 856 480 949 l 402 882 q 464 990 402 952 q 636 1029 525 1029 q 819 975 751 1029 q 887 830 887 921 q 654 550 887 657 q 862 305 862 492 q 748 69 862 163 q 463 -25 634 -25 q 204 113 204 -25 q 208 161 204 128 q 465 58 309 58 q 650 124 575 58 q 724 286 724 189 q 680 400 724 359 q 528 467 636 441 q 451 456 486 456 q 349 486 393 456 z "},"4":{"ha":937,"x_min":159,"x_max":979,"o":"m 721 366 l 700 260 q 676 79 676 140 q 694 -1 676 31 q 603 -25 644 -25 q 541 56 541 -25 q 566 221 541 92 l 595 366 q 357 337 491 357 l 322 332 q 209 318 227 318 q 159 354 159 318 q 168 432 159 381 q 454 1033 374 713 q 555 1050 519 1050 q 589 1025 589 1050 q 486 795 589 979 q 256 432 382 611 q 618 483 452 469 l 671 743 q 680 788 677 779 q 689 858 689 833 q 684 907 689 886 q 753 920 722 920 q 817 860 817 920 q 797 745 817 836 q 783 677 786 692 l 744 483 q 798 486 774 486 q 938 454 905 486 q 979 309 970 422 q 721 366 897 355 z "},"5":{"ha":937,"x_min":222,"x_max":924,"o":"m 331 546 l 431 1023 q 625 1004 525 1004 q 924 1046 797 1004 q 845 926 900 961 q 681 891 791 891 q 500 903 581 891 l 435 668 q 529 677 492 677 q 776 585 680 677 q 871 348 871 493 q 758 82 871 189 q 475 -25 644 -25 q 222 118 222 -25 q 225 161 222 133 q 481 58 331 58 q 665 138 589 58 q 741 332 741 218 q 670 499 741 437 q 477 561 599 561 q 331 546 401 561 z "},"6":{"ha":937,"x_min":201,"x_max":907,"o":"m 353 492 q 616 631 448 631 q 811 553 734 631 q 889 358 889 475 q 778 90 889 205 q 517 -25 667 -25 q 289 78 377 -25 q 201 346 201 180 q 345 834 201 640 q 704 1029 488 1029 q 852 999 796 1029 q 907 920 907 969 q 901 870 907 903 q 701 937 816 937 q 478 814 574 937 q 353 492 382 690 m 334 357 q 380 135 334 205 q 532 42 439 42 q 690 134 622 42 q 758 347 758 227 q 711 480 758 429 q 589 531 664 531 q 334 357 418 531 z "},"7":{"ha":937,"x_min":292,"x_max":972,"o":"m 972 1004 l 946 874 q 590 447 728 685 q 452 25 452 210 q 462 -66 452 -16 q 424 -71 441 -71 q 292 21 292 -71 q 357 247 292 93 q 503 513 423 400 q 836 874 664 742 l 589 874 l 550 873 q 354 885 400 873 q 307 934 307 897 q 311 968 307 948 q 318 998 314 979 l 326 1038 q 477 1006 376 1006 l 522 1006 l 615 1005 l 722 1004 l 972 1004 z "},"8":{"ha":937,"x_min":181,"x_max":909,"o":"m 686 547 l 714 526 q 883 269 883 399 q 780 57 883 140 q 513 -25 676 -25 q 273 43 364 -25 q 181 223 181 111 q 460 559 181 408 q 326 783 326 670 q 410 961 326 892 q 631 1029 495 1029 q 831 971 754 1029 q 909 822 909 913 q 686 547 909 642 m 630 592 q 777 804 777 665 q 729 918 777 873 q 610 962 682 962 q 502 921 546 962 q 458 819 458 879 q 592 623 458 734 l 630 592 m 512 513 q 317 235 317 399 q 384 100 317 157 q 543 42 452 42 q 688 99 628 42 q 747 239 747 157 q 554 483 747 346 l 512 513 z "},"9":{"ha":937,"x_min":230,"x_max":937,"o":"m 785 512 q 522 372 690 372 q 326 450 404 372 q 248 646 248 528 q 360 914 248 800 q 621 1029 471 1029 q 849 926 761 1029 q 937 658 937 823 q 793 170 937 365 q 433 -25 650 -25 q 286 5 341 -25 q 230 85 230 35 q 237 134 230 102 q 437 66 323 66 q 660 190 563 66 q 785 512 756 314 m 804 647 q 758 869 804 800 q 606 962 699 962 q 448 870 516 962 q 380 656 380 778 q 427 524 380 575 q 549 473 474 473 q 804 647 720 473 z "}," ":{"ha":469,"x_min":0,"x_max":0,"o":""},"!":{"ha":533,"x_min":314,"x_max":597,"o":"m 496 273 q 460 266 486 271 q 437 264 450 264 q 380 317 380 264 q 392 407 380 348 l 406 475 q 455 932 455 722 q 450 979 455 953 q 530 1004 510 1004 q 597 932 597 1004 q 543 644 597 868 q 506 475 519 541 l 496 429 q 486 332 486 378 q 496 273 486 302 m 314 163 l 363 172 q 434 182 412 182 q 493 120 493 182 q 486 61 493 96 l 477 15 l 446 9 q 367 -3 380 -3 q 319 47 319 -3 q 321 74 319 61 l 325 92 q 328 116 328 103 q 314 163 328 144 z "},"\"":{"ha":564,"x_min":273,"x_max":653,"o":"m 637 833 l 616 833 q 561 850 575 833 q 547 918 547 867 l 546 956 q 511 1166 546 1106 l 527 1166 l 546 1167 q 653 1108 653 1167 q 644 1020 653 1090 l 637 961 q 628 870 628 887 q 637 833 628 850 m 400 833 l 378 832 q 324 850 338 832 q 310 918 310 867 l 309 956 q 273 1166 309 1105 l 290 1166 l 309 1167 q 416 1108 416 1167 q 407 1020 416 1090 l 400 961 q 391 865 391 894 q 400 833 391 849 z "},"#":{"ha":937,"x_min":117,"x_max":1030,"o":"m 410 301 l 399 281 q 336 90 336 167 q 341 52 336 75 q 281 42 311 42 q 232 83 232 42 q 259 177 232 104 q 308 284 286 250 l 318 301 l 297 301 q 117 256 195 301 q 166 361 134 336 q 283 386 199 386 l 335 385 l 356 385 l 462 611 l 442 611 q 222 570 299 611 q 234 603 230 592 q 287 675 254 659 q 414 690 319 690 l 503 690 l 507 702 q 581 962 581 878 q 574 1021 581 989 q 630 1029 599 1029 q 682 964 682 1029 q 606 717 682 888 l 594 690 l 763 690 l 777 717 q 798 768 781 725 q 880 904 842 871 q 993 937 918 937 q 1025 933 1008 937 q 863 690 959 884 l 878 690 q 1030 722 960 690 q 982 635 1022 659 q 842 611 941 611 l 824 611 l 775 501 q 726 385 770 489 l 745 385 q 938 446 868 385 q 881 335 933 369 q 715 301 829 301 l 691 301 q 649 68 649 167 q 662 3 649 32 q 591 -25 621 -25 q 541 62 541 -25 q 601 301 541 141 l 410 301 m 449 385 l 632 385 q 685 507 648 425 q 729 611 692 523 l 555 611 l 449 385 z "},"$":{"ha":937,"x_min":181,"x_max":916,"o":"m 536 5 q 522 -136 522 -81 q 524 -183 522 -151 q 448 -129 448 -176 q 464 -26 448 -104 l 469 0 q 266 51 350 0 q 181 173 181 101 q 260 292 181 222 q 485 81 301 104 l 559 456 l 505 497 q 351 713 351 608 q 432 892 351 818 q 661 997 514 967 q 665 1078 665 1034 q 661 1137 665 1105 q 675 1139 670 1139 q 701 1142 695 1142 q 749 1090 749 1142 q 739 1023 749 1075 q 734 997 737 1014 q 916 909 916 997 q 880 820 916 873 q 720 928 831 911 l 647 558 l 688 530 q 861 312 861 415 q 536 5 861 77 m 654 928 q 524 864 572 913 q 475 746 475 814 q 588 600 475 683 l 654 928 m 552 82 q 743 264 743 121 q 618 414 743 320 l 552 82 z "},"%":{"ha":1155,"x_min":212,"x_max":1198,"o":"m 308 -136 q 232 -37 232 -99 q 517 374 232 47 q 966 871 848 754 q 733 812 848 812 q 671 816 711 812 q 672 799 672 804 q 596 585 672 672 q 408 498 519 498 q 268 549 323 498 q 212 680 212 601 q 268 846 212 767 q 386 924 324 924 q 437 889 418 924 q 344 809 380 866 q 309 684 309 753 q 341 599 309 633 q 423 565 374 565 q 532 625 490 565 q 575 779 575 686 q 570 827 575 800 q 471 911 471 867 q 528 999 471 947 q 758 895 591 895 q 1077 999 947 895 l 1092 1011 q 1147 1042 1130 1042 q 1198 1006 1173 1042 q 695 456 1031 864 q 406 79 491 209 q 308 -136 321 -50 m 937 456 q 997 490 964 490 q 1093 422 1048 490 q 1139 280 1139 355 q 1060 83 1139 167 q 873 0 981 0 q 739 55 792 0 q 686 196 686 111 q 753 371 686 302 q 937 456 820 441 m 975 399 q 948 401 958 401 q 833 340 884 401 q 783 202 783 279 q 893 71 783 71 q 999 123 955 71 q 1043 249 1043 175 q 975 399 1043 340 z "},"&":{"ha":1200,"x_min":129,"x_max":1286,"o":"m 902 175 q 471 -25 714 -25 q 222 50 315 -25 q 129 250 129 125 q 452 605 129 498 q 344 780 344 659 q 441 958 344 887 q 684 1029 538 1029 q 834 1001 774 1029 q 895 930 895 972 q 853 857 895 895 q 666 962 796 962 q 524 916 580 962 q 469 799 469 870 q 559 648 469 717 q 662 661 618 661 q 745 648 702 661 q 608 540 706 540 q 521 561 568 540 q 335 436 405 519 q 264 258 264 353 q 336 117 264 172 q 521 63 408 63 q 795 165 657 63 q 934 367 934 267 q 877 445 934 420 l 859 452 q 827 493 827 467 q 854 578 827 524 q 1107 540 939 540 q 1286 561 1196 540 q 1223 459 1261 487 q 1105 432 1185 432 q 1056 435 1090 432 q 974 57 974 200 q 1013 -111 974 -52 q 911 -155 966 -155 q 867 -85 867 -155 q 902 175 867 -5 z "},"'":{"ha":361,"x_min":243,"x_max":430,"o":"m 400 807 q 361 799 377 799 q 303 885 309 799 l 300 938 q 243 1139 289 1096 q 355 1167 296 1167 q 430 1119 430 1167 q 418 1048 430 1106 l 409 1004 q 385 852 385 886 q 400 807 385 827 z "},"(":{"ha":901,"x_min":300,"x_max":1022,"o":"m 1022 1139 q 603 800 772 1045 q 434 286 434 555 q 525 1 434 116 q 761 -125 616 -113 q 610 -201 687 -201 q 394 -51 487 -201 q 300 295 300 98 q 584 938 300 644 q 795 1111 677 1034 q 968 1188 914 1188 q 1022 1139 1002 1188 z "},")":{"ha":743,"x_min":66,"x_max":787,"o":"m 66 -152 q 485 187 316 -58 q 654 701 654 432 q 563 986 654 871 q 327 1112 471 1101 q 478 1188 400 1188 q 694 1039 601 1188 q 787 692 787 889 q 504 50 787 343 q 293 -123 412 -45 q 120 -201 174 -201 q 66 -152 86 -201 z "},"*":{"ha":673,"x_min":273,"x_max":768,"o":"m 531 566 q 431 633 431 566 q 458 814 431 680 q 326 673 349 733 q 273 741 273 705 q 450 871 273 776 q 293 1008 293 952 q 336 1073 293 1046 q 479 917 376 997 l 485 1020 q 512 1136 485 1105 q 620 1171 540 1166 q 537 917 570 1055 q 720 1004 673 1004 q 768 917 761 1004 q 732 928 750 928 q 542 858 663 928 q 676 756 621 811 q 731 671 731 702 q 663 629 731 637 q 518 822 627 718 q 513 720 513 773 q 531 566 513 635 z "},"+":{"ha":937,"x_min":162,"x_max":936,"o":"m 162 309 q 221 435 185 414 q 416 456 257 456 l 508 456 l 522 528 q 538 672 538 607 q 498 768 538 732 q 532 770 522 770 q 648 685 648 770 q 621 521 648 651 l 608 456 l 673 456 q 936 500 874 456 q 878 378 920 401 q 663 355 836 355 l 588 355 l 580 314 q 559 139 559 206 q 584 47 559 88 q 570 45 574 46 q 514 38 532 38 q 440 100 440 38 q 456 197 440 124 q 471 270 467 254 l 488 355 l 411 355 q 162 309 249 355 z "},",":{"ha":484,"x_min":131,"x_max":422,"o":"m 131 -142 q 168 -146 153 -146 q 250 -105 216 -146 q 284 -7 284 -64 q 200 136 284 78 q 328 184 271 184 q 422 75 422 184 q 348 -121 422 -29 q 188 -214 273 -214 q 131 -142 140 -214 z "},"-":{"ha":668,"x_min":338,"x_max":690,"o":"m 338 352 q 462 471 376 471 q 496 469 478 471 l 570 461 q 612 459 591 459 q 690 489 666 459 q 595 357 669 357 q 553 359 578 357 l 503 366 q 420 372 450 372 q 338 352 378 372 z "},".":{"ha":456,"x_min":216,"x_max":395,"o":"m 216 163 l 265 172 q 336 182 314 182 q 395 120 395 182 q 389 61 395 96 l 380 15 l 349 9 q 269 -3 282 -3 q 221 47 221 -3 q 224 74 221 61 l 227 92 q 230 116 230 103 q 216 163 230 144 z "},"/":{"ha":633,"x_min":104,"x_max":913,"o":"m 211 -201 q 104 -104 104 -163 q 348 480 104 -1 l 414 609 q 685 1089 608 991 q 865 1188 762 1188 q 913 1182 887 1188 q 437 450 710 1014 l 408 389 q 209 -170 209 -23 q 211 -201 209 -182 z "},":":{"ha":456,"x_min":216,"x_max":519,"o":"m 216 163 l 265 172 q 336 182 314 182 q 395 120 395 182 q 389 61 395 96 l 380 15 l 349 9 q 269 -3 282 -3 q 221 47 221 -3 q 224 74 221 61 l 227 92 q 230 116 230 103 q 216 163 230 144 m 340 785 l 389 794 q 460 804 439 804 q 519 741 519 804 q 512 683 519 716 l 503 637 l 472 631 q 393 619 407 619 q 345 669 345 619 q 348 696 345 682 l 351 713 q 353 738 353 725 q 340 785 353 766 z "},";":{"ha":484,"x_min":131,"x_max":494,"o":"m 131 -142 q 168 -146 153 -146 q 250 -105 216 -146 q 284 -7 284 -64 q 200 136 284 78 q 328 184 271 184 q 422 75 422 184 q 348 -121 422 -29 q 188 -214 273 -214 q 131 -142 140 -214 m 315 785 l 363 794 q 436 804 414 804 q 494 741 494 804 q 488 683 494 717 l 478 637 l 448 631 q 368 619 382 619 q 320 669 320 619 q 323 696 320 682 l 326 713 q 328 738 328 725 q 315 785 328 766 z "},"<":{"ha":937,"x_min":157,"x_max":987,"o":"m 366 395 q 723 234 617 305 q 829 83 829 163 q 816 20 829 55 q 373 292 691 163 l 307 319 q 204 368 226 352 q 157 431 183 384 q 621 593 387 489 q 987 801 856 698 q 892 610 979 663 q 366 395 713 504 z "},"=":{"ha":937,"x_min":136,"x_max":931,"o":"m 220 422 q 274 544 239 514 q 397 574 309 574 q 461 572 422 574 q 532 569 515 569 l 614 569 q 931 614 844 569 q 856 496 906 524 q 667 469 805 469 l 522 469 q 220 422 287 469 m 136 184 q 195 310 159 289 q 389 331 231 331 l 646 331 q 909 375 848 331 q 851 253 894 275 q 637 231 809 231 l 385 231 q 136 184 222 231 z "},">":{"ha":937,"x_min":149,"x_max":964,"o":"m 748 406 q 471 541 607 465 q 352 627 382 590 q 321 720 321 665 q 328 793 321 756 q 586 595 405 699 q 964 430 768 492 q 799 323 928 372 l 726 294 q 620 254 705 286 q 149 15 326 143 q 249 204 159 145 q 748 406 338 262 z "},"?":{"ha":770,"x_min":356,"x_max":891,"o":"m 552 266 q 495 251 529 251 q 412 321 412 251 q 559 540 412 419 l 589 564 q 753 805 753 700 q 615 933 753 933 q 370 768 474 933 q 356 821 356 792 q 460 962 356 895 q 679 1029 565 1029 q 835 978 779 1029 q 891 839 891 928 q 713 574 891 711 l 688 555 q 535 326 535 437 q 552 266 535 296 m 388 163 l 437 172 q 509 182 486 182 q 567 119 567 182 q 560 61 567 95 l 551 15 l 520 9 q 441 -3 454 -3 q 393 47 393 -3 q 395 74 393 61 l 399 92 q 401 117 401 104 q 388 163 401 144 z "},"@":{"ha":1293,"x_min":155,"x_max":1343,"o":"m 1017 98 q 979 -13 1006 20 q 851 -87 944 -57 q 659 -117 759 -117 q 292 11 429 -117 q 155 353 155 139 q 373 849 155 635 q 879 1063 591 1063 q 1210 938 1076 1063 q 1343 630 1343 814 q 1252 364 1343 473 q 1030 255 1161 255 q 895 435 895 255 q 898 505 895 458 q 563 213 711 213 q 438 380 438 213 q 537 670 438 549 q 775 791 637 791 q 953 740 862 791 q 1044 773 978 773 q 1083 772 1056 773 q 996 452 996 642 q 1069 347 996 347 q 1212 432 1150 347 q 1273 629 1273 517 q 1160 887 1273 783 q 880 991 1047 991 q 440 806 625 991 q 255 365 255 621 q 367 64 255 179 q 659 -50 479 -50 q 1017 98 839 -50 m 923 654 q 768 720 844 720 q 614 628 682 720 q 546 419 546 536 q 610 313 546 313 q 744 415 650 313 q 923 654 838 517 z "},"A":{"ha":1058,"x_min":49,"x_max":1053,"o":"m 368 334 l 354 308 q 269 61 269 149 q 288 11 269 35 q 215 -16 272 5 q 165 -25 189 -25 q 117 20 117 -25 q 235 308 117 115 l 256 342 l 221 342 q 49 308 110 342 q 220 422 81 422 l 304 420 l 323 448 q 648 878 429 608 q 759 992 722 970 q 901 1033 795 1015 q 881 806 881 911 q 945 241 881 527 q 1053 38 981 83 q 944 -25 989 -25 q 779 342 837 -25 q 553 330 667 330 l 368 334 m 416 414 l 553 410 q 768 420 694 410 q 737 814 737 658 l 738 865 q 637 742 715 837 q 431 440 496 569 l 416 414 z "},"B":{"ha":1047,"x_min":114,"x_max":1050,"o":"m 132 648 q 114 718 114 685 q 303 932 114 835 q 718 1029 492 1029 q 921 981 844 1029 q 999 854 999 932 q 793 583 999 710 q 982 485 913 551 q 1050 336 1050 419 q 871 56 1050 172 q 439 -59 693 -59 q 253 58 253 -59 q 273 189 253 86 l 369 669 q 380 751 380 727 q 364 795 380 775 q 490 829 454 829 q 532 781 532 829 q 509 661 532 768 l 420 216 q 406 115 406 138 q 568 29 406 29 q 797 106 702 29 q 892 291 892 183 q 840 422 892 375 q 663 496 787 470 q 567 478 619 478 q 523 484 549 478 q 572 582 543 557 q 667 607 602 607 q 713 605 684 607 q 857 814 857 711 q 670 937 857 937 q 132 648 367 937 z "},"C":{"ha":983,"x_min":155,"x_max":1016,"o":"m 978 279 q 991 231 991 249 q 840 59 991 143 q 530 -25 689 -25 q 256 76 357 -25 q 155 353 155 177 q 337 829 155 630 q 772 1029 519 1029 q 945 992 875 1029 q 1016 903 1016 956 q 955 798 1016 855 q 722 962 873 962 q 435 791 557 962 q 312 391 312 620 q 386 160 312 245 q 585 75 459 75 q 978 279 799 75 z "},"D":{"ha":1202,"x_min":114,"x_max":1257,"o":"m 130 641 q 114 713 114 676 q 300 932 114 836 q 723 1029 487 1029 q 1114 919 971 1029 q 1257 618 1257 809 q 1035 170 1257 363 q 742 2 918 67 q 405 -63 566 -63 q 250 53 250 -63 q 277 227 250 95 l 365 669 q 376 751 376 726 q 360 795 376 775 q 486 829 450 829 q 528 780 528 829 q 506 661 528 768 l 432 290 q 404 112 404 149 q 432 57 404 71 q 535 42 459 42 q 947 192 781 42 q 1114 564 1114 342 q 993 838 1114 735 q 671 941 872 941 q 367 863 508 941 q 130 641 225 784 z "},"E":{"ha":861,"x_min":125,"x_max":1015,"o":"m 437 502 l 402 328 q 380 174 380 219 q 555 83 380 83 q 861 145 729 83 q 760 20 831 43 q 612 -10 718 5 q 449 -25 506 -25 q 227 122 227 -25 q 249 273 227 161 l 294 502 l 284 502 q 151 472 216 502 q 213 566 189 545 q 289 586 237 586 l 311 586 l 378 920 l 358 920 q 125 840 233 920 q 218 980 159 949 q 503 1004 264 1004 l 705 1004 q 1015 1042 896 1004 q 920 939 962 957 q 739 920 878 920 l 520 920 l 453 586 l 593 586 q 828 623 741 586 q 746 519 782 537 q 577 502 710 502 l 437 502 z "},"F":{"ha":851,"x_min":187,"x_max":1075,"o":"m 482 427 l 389 -42 q 376 -125 376 -106 q 385 -166 376 -144 q 259 -201 316 -201 q 224 -172 224 -201 q 237 -88 224 -157 l 340 427 l 330 427 q 198 397 269 427 q 257 490 231 469 q 338 511 282 511 l 356 511 l 437 916 l 422 916 q 187 836 275 916 q 279 979 214 943 q 565 1004 325 1004 l 743 1004 q 1075 1039 943 1004 q 987 940 1033 965 q 846 916 941 916 l 787 916 l 579 916 l 498 511 l 645 511 q 870 545 781 511 q 795 448 838 469 q 629 427 753 427 l 482 427 z "},"G":{"ha":996,"x_min":155,"x_max":1063,"o":"m 1043 552 l 936 155 q 836 -129 870 -89 q 656 -179 802 -170 q 814 138 730 -79 q 515 0 669 0 q 257 105 359 0 q 155 370 155 210 q 374 828 155 628 q 876 1029 593 1029 q 1063 954 1063 1029 q 998 847 1063 922 q 979 825 991 840 q 785 937 932 937 q 442 780 587 937 q 297 408 297 623 q 371 178 297 264 q 566 92 444 92 q 756 174 675 92 q 865 395 838 256 l 870 424 q 534 366 661 424 q 596 476 560 453 q 762 511 632 498 l 846 517 q 1043 552 947 526 z "},"H":{"ha":1201,"x_min":114,"x_max":1230,"o":"m 490 486 l 406 58 q 392 -31 392 -4 q 400 -66 392 -45 q 276 -100 332 -100 q 240 -72 240 -100 q 254 12 240 -58 l 348 486 l 320 486 q 114 430 220 486 q 189 541 142 512 q 341 569 236 569 l 365 569 l 435 921 q 323 912 375 912 q 197 1053 216 912 q 328 1013 245 1013 q 600 1034 436 1013 l 507 569 l 863 569 q 999 999 928 859 q 1070 1096 1038 1076 q 1196 1123 1102 1116 q 1230 1126 1207 1124 q 1002 569 1069 941 l 1015 569 q 1146 617 1067 569 q 1015 486 1130 486 l 985 486 q 965 262 965 380 q 1085 67 965 67 q 1195 109 1135 67 q 1019 -25 1185 -25 q 824 272 824 -25 q 847 486 824 372 l 490 486 z "},"I":{"ha":758,"x_min":116,"x_max":852,"o":"m 625 932 l 458 89 q 642 106 587 106 q 730 -17 730 106 q 625 0 680 0 q 496 -10 572 0 l 341 -31 q 225 -42 258 -42 q 144 -15 168 -42 q 116 84 121 12 q 216 58 164 58 q 311 68 245 58 l 479 911 q 353 899 406 899 q 259 1009 259 899 q 326 991 286 991 q 468 1009 374 991 l 575 1029 q 746 1050 687 1050 q 852 927 838 1050 q 772 945 814 945 q 655 936 720 945 q 625 932 645 934 z "},"J":{"ha":749,"x_min":-163,"x_max":932,"o":"m 683 931 l 564 330 q 359 -136 500 12 q 59 -284 218 -284 q -93 -239 -23 -284 q -163 -141 -163 -194 q -71 -22 -163 -77 q -23 -146 -71 -100 q 109 -193 26 -193 q 292 -100 230 -193 q 405 248 354 -7 l 536 910 q 414 891 439 891 q 317 1000 328 891 q 389 983 347 983 q 566 1009 443 983 l 632 1023 q 784 1042 720 1042 q 890 1012 859 1042 q 932 900 921 982 q 790 941 871 941 q 683 931 747 941 z "},"K":{"ha":1025,"x_min":129,"x_max":1134,"o":"m 425 491 l 353 134 q 340 50 340 70 q 349 9 340 31 q 224 -25 279 -25 q 189 3 189 -25 q 203 90 189 18 l 367 916 q 256 908 307 908 q 129 1048 149 908 q 260 1008 178 1008 q 532 1029 364 1008 l 433 534 q 891 1034 822 799 q 987 928 987 985 q 845 769 987 897 q 554 539 702 641 q 797 159 678 305 q 981 13 916 13 q 1133 90 1050 13 l 1134 72 q 1063 -34 1134 21 q 925 -88 991 -88 q 425 491 751 -88 z "},"L":{"ha":849,"x_min":218,"x_max":903,"o":"m 903 148 q 850 51 881 81 q 696 -2 820 20 q 435 -25 572 -25 q 218 123 218 -25 q 241 279 218 164 l 374 945 q 385 1028 385 1003 q 369 1071 385 1051 q 494 1105 459 1105 q 536 1057 536 1105 q 514 937 536 1044 l 396 342 q 370 164 370 214 q 558 79 370 79 q 903 148 726 79 z "},"M":{"ha":1301,"x_min":170,"x_max":1304,"o":"m 417 658 l 328 212 q 311 77 311 126 q 354 -2 311 26 q 239 -25 280 -25 q 170 31 170 -25 q 210 250 170 92 l 360 827 l 332 913 q 240 1087 285 1056 q 355 1128 304 1128 q 419 1070 392 1128 q 517 771 446 1011 q 541 695 531 723 l 553 661 q 732 361 656 361 q 965 604 816 361 q 1126 1004 1114 847 q 1238 1029 1202 1029 q 1304 956 1304 1029 q 1289 820 1304 931 q 1267 658 1274 719 l 1221 216 q 1216 125 1216 169 q 1271 -43 1216 -10 q 1152 -92 1201 -92 q 1071 75 1071 -92 q 1081 239 1071 142 l 1140 800 q 932 387 1059 557 q 704 216 804 216 q 549 334 625 216 q 417 658 472 452 z "},"N":{"ha":1131,"x_min":177,"x_max":1156,"o":"m 422 751 l 336 317 q 312 131 312 194 q 366 -1 312 37 q 253 -25 304 -25 q 177 45 177 -25 q 258 458 177 111 l 359 890 l 339 943 q 239 1073 299 1051 q 370 1121 343 1121 q 438 1079 416 1121 q 638 618 461 1036 q 900 148 837 148 q 991 348 947 148 q 1036 758 1036 547 q 955 981 1036 928 q 1075 1029 1021 1029 q 1156 897 1156 1029 q 1119 577 1156 793 q 1041 214 1083 361 q 887 -25 972 -25 q 730 104 814 -25 q 507 561 646 233 q 445 703 461 667 l 422 751 z "},"O":{"ha":1200,"x_min":165,"x_max":1240,"o":"m 624 888 q 901 1029 729 1029 q 1144 922 1048 1029 q 1240 651 1240 815 q 1034 185 1240 395 q 579 -25 829 -25 q 282 94 399 -25 q 165 395 165 213 q 299 736 165 593 q 624 888 432 880 m 572 814 q 382 685 452 785 q 312 438 312 585 q 407 169 312 275 q 649 62 502 62 q 960 229 825 62 q 1095 615 1095 396 q 1028 829 1095 743 q 863 916 961 916 q 690 835 763 916 q 616 643 616 754 q 654 498 616 564 q 555 538 580 511 q 530 631 530 564 q 572 814 530 719 z "},"P":{"ha":954,"x_min":144,"x_max":1055,"o":"m 456 356 l 396 58 q 383 -25 383 -6 q 392 -66 383 -44 q 267 -100 322 -100 q 231 -72 231 -100 q 245 13 231 -57 l 316 368 q 144 482 144 407 q 151 522 144 498 q 329 435 224 462 l 376 669 q 387 751 387 727 q 371 795 387 775 q 496 829 461 829 q 538 780 538 829 q 516 661 538 768 l 469 422 q 788 519 664 422 q 912 766 912 615 q 847 899 912 848 q 676 949 783 949 q 167 684 359 949 q 151 749 151 726 q 334 940 151 852 q 731 1029 517 1029 q 1055 790 1055 1029 q 887 486 1055 616 q 493 355 718 355 l 456 356 z "},"Q":{"ha":1198,"x_min":166,"x_max":1247,"o":"m 626 888 q 907 1029 739 1029 q 1148 920 1053 1029 q 1243 642 1243 810 q 1123 287 1243 452 q 793 22 1004 121 q 1247 -213 994 -153 q 1096 -285 1173 -285 q 929 -205 1041 -285 q 703 -7 817 -126 q 579 -25 640 -25 q 284 95 401 -25 q 166 397 166 216 q 299 736 166 594 q 626 888 432 878 m 585 815 q 384 689 457 789 q 311 436 311 588 q 400 175 311 275 q 643 62 490 75 q 538 221 538 164 q 593 316 538 269 q 736 74 629 188 q 992 274 888 119 q 1096 614 1096 430 q 1030 822 1096 741 q 863 904 964 904 q 709 841 772 904 q 646 690 646 779 l 646 663 q 568 738 568 676 q 585 815 568 775 z "},"R":{"ha":1112,"x_min":114,"x_max":1141,"o":"m 142 645 q 114 721 114 677 q 305 931 114 833 q 714 1029 496 1029 q 1050 814 1050 1029 q 978 638 1050 711 q 726 486 906 565 q 1006 117 888 117 q 1138 203 1067 117 q 1141 180 1141 186 q 1074 61 1141 123 q 945 0 1007 0 q 606 433 786 0 q 541 422 570 422 q 515 428 527 422 q 642 556 540 556 q 692 548 663 556 q 915 795 915 623 q 851 900 915 859 q 690 941 788 941 q 369 858 523 941 q 142 645 215 775 m 386 -66 q 260 -100 317 -100 q 225 -72 225 -100 q 241 13 225 -57 l 371 669 q 382 751 382 726 q 366 795 382 775 q 492 829 456 829 q 534 780 534 829 q 512 661 534 768 l 392 58 q 379 -31 379 -5 q 386 -66 379 -45 z "},"S":{"ha":778,"x_min":90,"x_max":821,"o":"m 182 237 q 242 63 182 126 q 410 0 303 0 q 575 57 505 0 q 645 191 645 114 q 491 416 645 273 l 416 486 q 273 730 273 618 q 375 945 273 861 q 634 1029 477 1029 q 769 1003 718 1029 q 821 937 821 978 q 784 844 821 897 q 592 958 725 958 q 453 907 509 958 q 396 781 396 856 q 415 704 396 730 q 530 589 433 677 l 591 532 q 758 254 758 377 q 644 15 758 110 q 357 -79 530 -79 q 166 -25 241 -79 q 90 112 90 29 q 182 237 90 168 z "},"T":{"ha":922,"x_min":177,"x_max":1131,"o":"m 691 899 l 538 134 q 526 50 526 70 q 534 9 526 31 q 409 -25 465 -25 q 374 3 374 -25 q 387 87 374 18 l 549 899 l 454 899 q 177 869 294 899 q 237 981 199 959 q 404 1004 275 1004 l 863 1004 q 1107 1137 1048 1004 q 1131 1073 1131 1097 q 1022 931 1131 985 q 772 899 956 899 l 691 899 z "},"U":{"ha":1182,"x_min":154,"x_max":1204,"o":"m 852 302 q 452 8 648 8 q 276 86 345 8 q 207 283 207 163 q 393 918 207 522 q 288 907 336 907 q 195 939 225 907 q 154 1048 165 970 q 286 1008 205 1008 q 593 1032 332 1008 q 354 318 354 564 q 398 174 354 230 q 510 117 441 117 q 701 212 606 117 q 879 486 795 307 q 985 892 939 817 q 1173 968 1031 968 q 1050 637 1111 889 q 990 207 990 385 q 1076 66 990 66 q 1202 124 1129 66 q 1204 100 1204 108 q 1149 14 1204 54 q 1028 -25 1093 -25 q 846 207 846 -25 q 852 302 846 239 z "},"V":{"ha":930,"x_min":125,"x_max":1084,"o":"m 347 -26 q 359 147 359 47 q 278 714 359 374 q 212 932 240 875 q 125 1027 184 989 q 238 1100 193 1100 q 401 825 323 1100 q 503 153 503 465 q 928 932 928 722 q 913 990 928 962 q 1029 1029 970 1029 q 1084 977 1084 1029 q 967 681 1084 886 q 644 203 850 476 q 491 27 536 62 q 347 -26 446 -8 z "},"W":{"ha":1317,"x_min":142,"x_max":1380,"o":"m 278 -28 q 296 153 296 41 q 253 683 296 428 q 142 1067 210 939 q 242 1084 211 1084 q 308 1042 287 1084 q 360 843 328 1000 q 432 185 410 603 q 802 917 659 652 q 814 919 810 918 q 853 925 843 925 q 909 871 909 925 q 906 833 909 856 q 879 507 879 612 l 877 430 l 876 384 q 954 130 876 130 q 1134 314 1042 130 q 1236 795 1236 520 q 1177 1017 1236 914 q 1266 1029 1226 1029 q 1354 994 1329 1029 q 1380 873 1380 959 q 1219 304 1380 594 q 1053 85 1145 172 q 891 -1 960 -1 q 782 85 814 -1 q 751 383 751 172 q 760 644 751 468 q 510 176 596 360 l 488 126 q 411 6 439 27 q 278 -28 383 -15 z "},"X":{"ha":951,"x_min":99,"x_max":1042,"o":"m 468 440 l 449 420 q 207 -25 219 173 l 169 -1 q 99 77 99 41 q 189 244 99 125 q 396 469 279 363 l 434 503 l 416 534 q 318 748 369 612 q 268 930 268 884 q 355 1024 268 996 l 387 1034 q 439 836 392 970 q 536 610 487 701 l 549 586 l 572 602 q 724 774 664 673 q 784 961 784 876 q 779 996 784 978 l 798 1006 q 882 1029 842 1029 q 924 986 924 1029 q 833 775 924 901 q 602 541 743 650 l 582 525 l 595 498 q 768 241 661 368 q 880 134 836 161 q 985 106 924 106 q 1042 119 1010 106 q 880 -13 960 -13 q 676 125 798 -13 q 570 268 636 170 q 482 410 503 366 l 468 440 z "},"Y":{"ha":811,"x_min":106,"x_max":979,"o":"m 545 469 l 478 134 q 465 50 465 70 q 473 9 465 31 q 349 -25 404 -25 q 313 3 313 -25 q 327 88 313 18 l 402 469 q 277 810 361 654 q 106 1017 193 965 q 214 1067 178 1067 q 519 534 345 1067 q 754 778 653 652 q 854 954 854 904 q 832 1003 854 982 q 923 1029 890 1029 q 979 970 979 1029 q 844 749 979 904 q 545 469 710 595 z "},"Z":{"ha":890,"x_min":81,"x_max":951,"o":"m 237 133 q 399 138 320 138 q 818 88 711 138 q 870 -31 870 63 q 867 -77 870 -45 q 667 -4 781 -25 q 366 17 553 17 q 207 8 285 17 l 184 6 l 140 1 q 81 47 81 1 q 94 119 81 61 q 758 867 315 412 q 823 936 772 882 q 530 918 627 923 q 389 912 419 912 q 237 1018 237 912 q 240 1081 237 1030 q 545 1004 302 1004 l 630 1004 q 951 1027 828 1004 q 927 922 940 950 q 869 849 913 893 q 532 481 766 745 q 237 133 299 218 z "},"[":{"ha":755,"x_min":305,"x_max":902,"o":"m 902 1191 q 855 1110 880 1129 q 774 1091 831 1091 l 714 1092 l 644 1092 l 443 82 q 422 -67 422 -22 q 559 -153 422 -153 q 657 -134 608 -153 q 613 -207 640 -190 q 515 -224 586 -224 q 305 -58 305 -224 q 326 102 305 -9 l 538 1171 l 715 1171 q 902 1191 849 1171 z "},"\\":{"ha":686,"x_min":182,"x_max":653,"o":"m 541 -212 q 548 -134 548 -174 q 418 570 548 105 q 182 1177 289 1035 q 242 1188 218 1188 q 389 1012 334 1188 q 570 330 473 744 q 623 108 606 176 q 653 -66 653 -19 q 541 -212 653 -152 z "},"]":{"ha":755,"x_min":145,"x_max":742,"o":"m 145 -224 q 192 -144 168 -163 q 273 -125 216 -125 l 333 -125 l 404 -125 l 604 884 q 625 1034 625 988 q 488 1120 625 1120 q 390 1101 439 1120 q 434 1174 407 1156 q 532 1191 461 1191 q 742 1024 742 1191 q 722 865 742 966 l 509 -205 l 332 -205 q 145 -224 197 -205 z "},"^":{"ha":937,"x_min":125,"x_max":942,"o":"m 641 787 q 393 411 543 595 q 267 291 317 318 q 125 264 218 264 q 432 631 275 404 q 637 1004 589 858 q 695 963 682 986 q 731 840 708 940 l 743 787 q 942 264 815 475 q 779 360 834 264 q 641 787 723 457 z "},"_":{"ha":694,"x_min":59,"x_max":649,"o":"m 59 13 q 184 0 98 0 l 401 0 q 649 -124 649 0 l 649 -134 q 430 -100 581 -100 l 259 -100 q 117 -76 159 -100 q 59 13 75 -52 z "},"`":{"ha":937,"x_min":592,"x_max":846,"o":"m 846 870 q 823 869 831 869 q 663 952 743 869 q 594 1050 595 1024 q 707 1114 592 1086 q 846 870 748 968 z "},"a":{"ha":1099,"x_min":168,"x_max":1468,"o":"m 761 414 q 547 109 674 235 q 326 -17 420 -17 q 211 47 254 -17 q 168 218 168 111 q 296 591 168 430 q 593 753 425 753 q 815 689 696 753 q 959 752 833 752 q 985 751 967 752 q 926 590 947 692 l 915 532 q 895 307 895 436 q 964 159 895 159 q 1165 281 1038 159 q 1415 593 1292 404 l 1468 556 q 1181 183 1342 332 q 903 33 1019 33 q 757 277 757 33 q 761 414 757 328 m 793 576 q 556 669 650 669 q 379 545 454 669 q 304 250 304 420 q 394 113 304 113 q 765 538 491 113 q 793 576 768 544 z "},"b":{"ha":913,"x_min":172,"x_max":1281,"o":"m 889 473 q 899 405 899 439 q 779 109 899 235 q 498 -17 660 -17 q 306 54 380 -17 q 232 235 232 124 q 262 467 232 316 l 376 1042 q 317 1036 342 1036 q 172 1187 172 1036 q 313 1145 216 1145 q 539 1188 398 1145 l 379 385 q 363 241 363 304 q 408 106 363 158 q 522 54 452 54 q 703 151 629 54 q 777 385 777 248 q 755 517 777 452 q 615 591 669 545 q 560 680 560 636 q 579 741 560 703 q 858 582 762 726 q 1044 540 946 540 q 1246 600 1143 540 l 1281 545 q 1017 456 1163 456 q 889 473 949 456 z "},"c":{"ha":793,"x_min":178,"x_max":1161,"o":"m 1161 554 q 813 120 997 279 q 472 -38 629 -38 q 260 52 341 -38 q 178 284 178 141 q 319 613 178 473 q 648 753 459 753 q 774 723 725 753 q 823 648 823 694 q 696 536 823 574 q 703 568 703 553 q 587 677 703 677 q 400 565 486 677 q 315 317 315 452 q 372 139 315 208 q 519 71 429 71 q 1104 588 769 71 l 1161 554 z "},"d":{"ha":1095,"x_min":168,"x_max":1463,"o":"m 753 397 q 532 95 648 206 q 326 -17 416 -17 q 210 46 253 -17 q 168 216 168 110 q 295 592 168 431 q 591 753 422 753 q 812 688 692 753 l 884 1054 q 785 1042 825 1042 q 698 1070 726 1042 q 653 1175 670 1098 q 803 1142 702 1142 q 1045 1188 928 1142 l 897 445 q 872 233 872 320 q 939 116 872 116 q 1155 269 1004 116 q 1408 588 1307 421 l 1463 553 q 1162 157 1343 332 q 873 -17 981 -17 q 736 203 736 -17 q 753 397 736 294 m 789 576 q 555 669 648 669 q 379 545 453 669 q 304 250 304 420 q 394 113 304 113 q 764 538 490 113 q 789 576 769 546 z "},"e":{"ha":812,"x_min":168,"x_max":1181,"o":"m 317 282 q 485 83 317 83 q 806 222 631 83 q 1123 589 982 361 l 1181 557 q 835 146 1048 309 q 432 -17 623 -17 q 239 62 310 -17 q 168 277 168 140 q 297 613 168 473 q 606 753 425 753 q 746 709 694 753 q 799 591 799 665 q 653 376 799 469 q 317 282 507 282 m 322 347 q 565 429 464 355 q 667 600 667 503 q 589 686 667 686 q 419 587 497 686 q 322 347 341 488 z "},"f":{"ha":502,"x_min":90,"x_max":905,"o":"m 280 540 l 267 540 q 90 490 165 540 q 138 600 106 576 q 271 623 170 623 l 296 623 l 319 735 q 464 1063 364 963 q 737 1188 587 1188 q 838 1161 795 1188 q 880 1095 880 1134 q 792 1005 880 1056 q 681 1109 768 1109 q 460 774 527 1109 l 431 623 l 667 623 q 905 641 829 623 q 831 554 873 569 q 616 540 789 540 l 414 540 l 298 -42 q 281 -189 281 -126 q 299 -262 281 -229 q 195 -284 231 -284 q 138 -221 138 -284 q 161 -58 138 -172 l 280 540 z "},"g":{"ha":991,"x_min":153,"x_max":1359,"o":"m 734 408 q 544 170 669 272 q 320 67 419 67 q 199 117 246 67 q 153 248 153 168 q 295 594 153 435 q 606 753 437 753 q 793 703 692 753 q 832 785 806 768 q 963 813 858 802 q 862 306 910 707 l 853 237 q 1302 594 1144 412 l 1359 558 q 848 134 1210 363 q 846 94 846 107 q 810 -157 836 -76 q 717 -310 784 -237 q 397 -452 585 -452 q 233 -404 296 -452 q 170 -280 170 -356 q 224 -151 170 -206 q 429 -15 279 -95 q 711 141 529 37 l 734 408 m 769 584 q 575 677 681 677 q 386 552 475 677 q 297 284 297 426 q 371 184 297 184 q 562 303 443 184 q 769 584 681 423 m 704 51 q 545 -40 665 27 q 310 -273 310 -172 q 348 -347 310 -318 q 445 -376 386 -376 q 704 51 704 -376 z "},"h":{"ha":1041,"x_min":146,"x_max":1409,"o":"m 340 298 q 753 753 543 753 q 874 683 837 753 q 911 455 911 612 l 912 374 q 975 159 912 162 q 1133 279 1025 157 q 1353 588 1241 402 l 1409 557 q 1161 189 1299 339 q 934 38 1023 38 q 814 116 850 38 q 777 371 777 194 l 777 431 q 707 636 777 636 q 452 361 607 636 q 296 33 296 85 q 309 0 296 16 q 230 -17 279 -17 q 170 37 170 -17 q 212 262 170 74 q 230 350 214 269 l 369 1050 q 277 1033 323 1033 q 146 1188 146 1033 q 297 1139 211 1139 q 530 1188 418 1139 l 419 627 q 357 375 417 618 q 340 298 352 355 z "},"i":{"ha":616,"x_min":224,"x_max":984,"o":"m 984 555 q 674 135 831 286 q 393 -17 517 -17 q 270 33 317 -17 q 224 163 224 82 q 237 260 224 193 l 252 334 q 286 561 286 496 q 262 624 286 600 q 373 644 351 644 q 423 574 423 644 q 404 424 423 522 l 377 292 q 357 168 357 196 q 429 83 357 83 q 654 226 513 83 q 928 588 795 369 l 984 555 m 380 897 l 390 896 q 520 942 435 898 q 654 1031 606 985 q 548 874 624 937 q 392 778 433 778 q 365 811 365 778 q 380 897 365 859 z "},"j":{"ha":396,"x_min":-230,"x_max":655,"o":"m -140 -252 q -142 -275 -142 -267 q -112 -352 -142 -319 q -40 -385 -81 -385 q 113 -256 55 -385 q 185 37 139 -200 l 244 334 q 277 561 277 496 q 255 624 277 600 q 366 644 342 644 q 416 573 416 644 q 396 424 416 522 l 317 26 q 193 -303 271 -210 q -79 -452 69 -452 q -184 -424 -139 -452 q -230 -360 -230 -397 q -140 -252 -230 -314 m 381 897 l 391 896 q 522 942 436 899 q 655 1031 607 985 q 549 874 625 937 q 393 778 433 778 q 366 811 366 778 q 381 897 366 859 z "},"k":{"ha":901,"x_min":186,"x_max":1270,"o":"m 378 387 l 345 226 q 328 78 328 141 q 346 6 328 39 q 241 -17 277 -17 q 186 47 186 -17 q 208 209 186 96 l 374 1046 q 268 1023 312 1023 q 189 1095 189 1023 q 202 1179 189 1118 q 321 1129 252 1129 q 534 1188 412 1129 l 385 423 q 617 652 492 552 q 795 753 743 753 q 867 662 827 753 q 686 588 801 654 q 498 449 571 522 q 796 179 669 179 q 913 222 856 179 q 1065 382 970 265 q 1213 590 1156 493 l 1270 557 q 1008 190 1146 330 q 770 50 871 50 q 568 153 688 50 q 378 387 448 256 z "},"l":{"ha":564,"x_min":175,"x_max":932,"o":"m 932 553 q 650 135 791 286 q 399 -17 508 -17 q 271 44 319 -17 q 222 205 222 106 q 242 362 222 260 l 377 1042 q 331 1038 351 1038 q 175 1168 175 1038 l 175 1183 q 359 1137 256 1137 q 538 1188 461 1137 l 380 372 q 359 221 359 262 q 444 106 359 106 q 607 198 525 106 q 878 590 690 290 l 932 553 z "},"m":{"ha":1493,"x_min":259,"x_max":1860,"o":"m 406 238 q 837 753 650 753 q 919 635 919 753 q 884 406 919 584 l 843 200 q 1090 601 962 450 q 1313 753 1219 753 q 1416 632 1416 753 q 1385 433 1416 589 l 1364 328 q 1345 186 1345 232 q 1403 104 1345 104 q 1803 589 1533 104 l 1860 557 q 1346 -17 1566 -17 q 1206 166 1206 -17 q 1233 362 1206 227 l 1252 456 q 1271 574 1271 551 q 1241 603 1271 603 q 979 312 1168 603 q 807 9 807 47 q 810 -5 807 5 q 777 -14 800 -7 q 746 -18 766 -18 q 683 43 683 -18 q 703 153 683 61 q 718 224 711 186 l 747 368 q 778 555 778 524 q 745 600 778 600 q 529 338 671 600 q 387 27 387 77 q 398 -1 387 13 q 330 -17 361 -17 q 259 59 259 -17 q 279 256 259 68 l 295 401 q 303 541 303 477 q 270 661 303 623 q 381 689 349 689 q 441 618 441 689 q 425 432 441 593 l 406 238 z "},"n":{"ha":1120,"x_min":259,"x_max":1488,"o":"m 405 243 q 838 753 646 753 q 987 454 987 753 l 989 372 q 1003 175 989 230 q 1057 121 1018 121 q 1189 214 1115 121 q 1431 587 1263 307 l 1488 554 q 1221 136 1339 273 q 1009 0 1103 0 q 888 83 923 0 q 853 372 853 167 l 852 431 q 838 587 852 542 q 789 632 824 632 q 500 275 699 632 q 437 162 452 187 q 385 31 385 71 q 394 -1 385 14 q 328 -17 355 -17 q 259 59 259 -17 q 277 254 259 81 l 292 401 q 302 547 302 495 q 269 660 302 618 q 317 676 283 665 q 384 691 359 691 q 437 614 437 691 q 427 474 437 573 q 422 433 425 452 l 405 243 z "},"o":{"ha":931,"x_min":157,"x_max":1299,"o":"m 907 500 q 909 471 909 484 q 776 129 909 275 q 465 -17 643 -17 q 242 70 328 -17 q 157 296 157 157 q 268 570 157 454 q 529 686 378 686 q 578 680 552 686 q 561 732 561 711 q 583 794 561 764 q 859 625 749 781 q 1093 548 971 548 q 1265 602 1173 548 l 1299 544 q 1078 469 1191 469 q 907 500 1002 469 m 753 557 q 649 612 696 574 q 591 619 614 619 q 387 515 476 619 q 298 279 298 412 q 352 120 298 182 q 490 58 406 58 q 688 174 605 58 q 770 450 770 290 q 753 557 770 505 z "},"p":{"ha":849,"x_min":89,"x_max":919,"o":"m 309 42 l 260 -209 q 243 -357 243 -294 q 260 -429 243 -397 q 156 -452 192 -452 q 100 -388 100 -452 q 122 -226 100 -338 l 320 770 q 221 758 261 758 q 134 786 162 758 q 89 890 106 814 q 239 857 138 857 q 481 903 365 857 l 429 642 q 667 753 544 753 q 847 671 775 753 q 919 467 919 589 q 787 138 919 277 q 473 0 654 0 q 309 42 374 0 m 330 147 q 498 67 399 67 q 702 168 618 67 q 785 412 785 268 q 738 580 785 515 q 614 644 690 644 q 408 537 519 644 l 330 147 z "},"q":{"ha":883,"x_min":168,"x_max":984,"o":"m 754 399 q 325 -17 520 -17 q 210 47 253 -17 q 168 218 168 111 q 295 592 168 431 q 592 753 423 753 q 812 689 692 753 q 964 751 831 751 l 984 751 q 926 593 945 686 l 767 -209 q 750 -357 750 -294 q 768 -429 750 -397 q 663 -452 699 -452 q 608 -388 608 -452 q 630 -226 608 -338 l 754 399 m 789 576 q 555 669 648 669 q 379 545 453 669 q 304 250 304 420 q 393 113 304 113 q 764 538 490 113 q 789 576 768 545 z "},"r":{"ha":751,"x_min":201,"x_max":945,"o":"m 345 5 q 271 -17 298 -17 q 201 44 201 -17 q 226 199 201 75 l 260 368 q 291 591 291 519 q 269 657 291 631 q 385 682 340 682 q 432 621 432 682 q 398 425 432 584 l 359 228 q 617 615 488 477 q 853 753 747 753 q 918 731 890 753 q 945 680 945 710 q 842 553 945 632 q 768 607 816 607 q 549 424 682 607 q 405 189 466 310 q 344 16 344 68 l 345 5 z "},"s":{"ha":596,"x_min":151,"x_max":964,"o":"m 583 239 q 606 140 606 187 q 519 -40 606 37 q 316 -117 433 -117 q 199 -82 248 -117 q 151 3 151 -47 q 217 110 151 56 q 439 239 283 164 l 385 326 q 286 575 286 486 q 435 783 286 704 q 528 694 528 747 q 410 548 528 618 l 488 406 l 548 296 q 743 428 677 373 q 909 599 809 484 l 964 566 q 583 239 818 370 m 468 178 q 269 12 269 71 q 349 -44 269 -44 q 446 -4 409 -44 q 484 100 484 37 q 468 178 484 138 z "},"t":{"ha":610,"x_min":81,"x_max":979,"o":"m 694 269 q 712 210 712 235 q 600 63 712 144 q 395 -17 488 -17 q 263 56 314 -17 q 212 243 212 128 q 279 606 212 370 l 310 720 l 195 720 q 81 699 123 720 q 146 789 120 771 q 233 808 172 808 l 336 808 l 349 854 q 424 998 380 959 q 554 1037 467 1037 q 587 1036 564 1037 q 477 808 534 968 l 835 808 q 979 832 929 808 q 933 741 962 762 q 829 720 905 720 l 448 720 q 437 686 441 697 q 355 264 355 407 q 469 107 355 107 q 596 157 527 107 q 694 269 665 206 z "},"u":{"ha":1084,"x_min":212,"x_max":1453,"o":"m 794 418 q 585 104 701 224 q 378 -17 470 -17 q 258 35 304 -17 q 212 171 212 87 q 284 564 212 278 q 304 662 304 642 q 291 706 304 682 l 385 707 q 445 660 445 707 q 406 492 445 631 q 390 435 393 451 l 380 394 q 350 205 350 270 q 419 104 350 104 q 707 385 532 104 q 849 711 849 614 q 841 738 849 724 q 935 753 897 753 q 995 717 995 753 q 989 691 995 708 q 977 642 987 681 q 963 587 975 634 q 950 534 954 553 l 943 501 q 921 292 921 389 q 993 142 921 142 q 1396 590 1152 142 l 1453 556 q 944 21 1175 21 q 789 290 789 21 q 794 418 789 341 z "},"v":{"ha":784,"x_min":151,"x_max":903,"o":"m 374 -18 q 389 85 389 41 q 318 455 389 252 q 151 761 247 658 q 257 791 210 791 q 408 595 332 791 q 517 122 484 399 q 713 433 636 273 q 801 709 791 593 q 903 616 903 668 q 805 408 903 570 q 594 100 708 245 q 500 9 538 29 q 374 -18 463 -12 z "},"w":{"ha":1163,"x_min":169,"x_max":1230,"o":"m 313 -15 q 330 124 330 45 q 283 502 330 316 q 169 763 237 688 q 271 791 231 791 q 395 620 345 791 q 465 142 446 450 q 634 417 565 271 q 703 646 703 564 q 703 669 703 652 q 793 690 762 690 q 852 646 852 690 q 828 497 852 631 q 820 439 823 465 l 816 393 q 811 273 811 340 q 898 83 811 83 q 1039 221 978 83 q 1099 539 1099 359 q 1035 693 1099 667 q 1148 741 1096 741 q 1230 614 1230 741 q 1099 186 1230 429 q 849 -25 985 -25 q 695 235 695 -25 l 700 393 q 536 101 623 220 q 313 -15 450 -15 z "},"x":{"ha":893,"x_min":203,"x_max":1261,"o":"m 456 227 q 284 -140 317 37 q 203 -39 203 -90 q 415 292 203 65 q 325 491 367 373 q 282 661 282 608 q 417 739 282 716 q 412 712 412 724 q 518 385 412 589 q 695 708 695 588 l 694 717 q 732 720 703 718 l 740 720 q 813 680 813 720 q 553 325 813 583 q 768 168 654 168 q 1204 589 972 168 l 1261 556 q 983 164 1110 286 q 727 42 857 42 q 456 227 573 42 z "},"y":{"ha":799,"x_min":-24,"x_max":928,"o":"m 465 4 q 361 364 435 186 q 201 635 287 542 q 304 677 251 677 q 379 636 349 677 q 455 471 410 595 q 562 119 526 277 q 810 753 791 481 q 928 673 928 735 q 822 406 928 608 q 591 34 715 203 q 309 -273 449 -161 q 67 -385 168 -385 q -24 -309 -24 -385 q -7 -235 -24 -277 q 85 -258 30 -258 q 465 4 283 -258 z "},"z":{"ha":863,"x_min":200,"x_max":1232,"o":"m 781 104 q 804 6 804 45 q 681 -311 804 -170 q 406 -452 559 -452 q 258 -407 317 -452 q 200 -294 200 -362 q 618 92 200 -154 q 500 117 563 117 q 292 67 401 117 q 290 96 290 87 q 352 206 290 182 q 491 383 389 259 l 665 593 q 526 565 593 573 l 471 559 q 275 484 334 544 q 335 650 292 613 q 515 686 378 686 l 576 686 q 759 731 707 686 q 783 654 783 694 q 724 543 783 613 q 589 372 709 524 l 477 228 q 551 234 521 234 q 735 170 656 234 q 1175 593 992 342 l 1232 559 q 781 104 1082 320 m 673 38 q 317 -296 317 -189 q 349 -359 317 -333 q 425 -385 380 -385 q 611 -281 522 -385 q 701 -62 701 -176 q 673 38 701 -12 z "},"{":{"ha":778,"x_min":292,"x_max":966,"o":"m 296 544 q 368 523 338 523 q 544 766 487 523 l 559 829 q 868 1188 643 1188 q 966 1113 958 1188 q 924 1118 943 1118 q 792 1068 836 1118 q 711 878 749 1019 l 689 798 q 585 573 649 649 q 403 460 521 497 q 569 278 569 404 q 526 98 569 201 l 506 50 q 475 -47 475 -23 q 608 -132 475 -132 q 679 -123 641 -132 q 570 -201 650 -201 q 342 -38 342 -201 q 372 77 342 5 l 392 126 q 413 177 403 153 q 454 320 454 275 q 380 411 454 376 l 353 424 q 292 500 292 452 q 296 544 292 515 z "},"|":{"ha":418,"x_min":134,"x_max":457,"o":"m 241 -201 q 134 -142 134 -196 q 154 -28 134 -122 l 327 843 q 355 1037 355 980 q 348 1087 355 1061 q 457 1012 457 1072 q 437 886 457 983 q 425 833 428 848 l 254 -25 q 237 -158 237 -111 q 241 -201 237 -176 z "},"}":{"ha":591,"x_min":30,"x_max":698,"o":"m 698 601 q 676 532 688 548 q 625 501 665 515 l 614 498 q 517 423 550 475 q 455 245 484 370 q 441 189 452 232 l 425 124 q 115 -201 346 -201 q 30 -130 37 -201 q 71 -136 52 -136 q 203 -81 157 -136 q 286 117 250 -26 l 294 150 q 384 393 336 317 q 543 536 433 468 q 398 655 398 553 q 448 839 398 726 l 470 890 q 515 1028 515 992 q 393 1117 515 1117 q 309 1103 353 1117 q 411 1188 328 1188 q 648 1027 648 1188 q 599 854 648 973 l 581 810 q 531 650 531 686 q 629 591 531 591 q 698 601 661 591 z "},"~":{"ha":937,"x_min":178,"x_max":909,"o":"m 243 288 q 178 369 178 307 q 236 478 178 429 q 364 527 294 527 q 523 468 419 527 l 577 438 q 732 376 686 376 q 844 515 844 376 q 909 433 909 491 q 850 321 909 370 q 715 272 791 272 q 527 339 644 272 l 461 376 q 345 422 380 422 q 273 389 302 422 q 243 308 243 355 q 243 288 243 301 z "},"Ä":{"ha":1058,"x_min":49,"x_max":1053,"o":"m 368 334 l 354 308 q 269 61 269 149 q 288 11 269 35 q 215 -16 272 5 q 165 -25 189 -25 q 117 20 117 -25 q 235 308 117 115 l 256 342 l 221 342 q 49 308 110 342 q 220 422 81 422 l 304 420 l 323 448 q 648 878 429 608 q 759 992 722 970 q 901 1033 795 1015 q 881 806 881 911 q 945 241 881 527 q 1053 38 981 83 q 944 -25 989 -25 q 779 342 837 -25 q 553 330 667 330 l 368 334 m 416 414 l 553 410 q 768 420 694 410 q 737 814 737 658 l 738 865 q 637 742 715 837 q 431 440 496 569 l 416 414 m 653 1206 l 669 1206 q 769 1168 769 1206 q 757 1088 769 1139 q 711 1089 732 1089 q 653 1139 653 1089 l 655 1163 q 656 1183 656 1173 q 653 1206 656 1195 m 922 1205 l 937 1205 q 1037 1168 1037 1205 q 1025 1087 1037 1139 q 979 1088 1003 1088 q 921 1137 921 1088 l 924 1162 q 924 1182 924 1171 q 922 1205 924 1194 z "},"Å":{"ha":1058,"x_min":49,"x_max":1053,"o":"m 368 334 l 354 308 q 269 61 269 149 q 288 11 269 35 q 215 -16 272 5 q 165 -25 189 -25 q 117 20 117 -25 q 235 308 117 115 l 256 342 l 221 342 q 49 308 110 342 q 220 422 81 422 l 304 420 l 323 450 q 610 831 405 583 q 688 928 660 892 q 742 980 715 962 q 668 1063 668 1007 q 719 1160 668 1109 q 840 1236 770 1211 q 846 1205 846 1216 q 845 1192 846 1200 q 952 1083 952 1156 q 895 991 952 1025 q 880 819 880 902 q 901 527 880 714 q 945 240 922 340 q 1053 38 981 83 q 944 -25 989 -25 q 779 342 837 -25 q 553 330 667 330 l 368 334 m 416 414 l 553 410 q 768 420 694 410 q 737 814 737 658 l 738 865 q 637 742 715 837 q 431 440 496 569 l 416 414 m 823 1153 q 740 1067 740 1102 q 800 1033 740 1033 q 894 1083 894 1033 q 823 1153 894 1111 z "},"Ç":{"ha":983,"x_min":155,"x_max":1016,"o":"m 978 279 q 991 233 991 251 q 866 74 991 154 q 587 -23 740 -5 l 552 -66 q 650 -146 650 -86 q 606 -230 650 -193 q 507 -268 562 -268 q 422 -193 422 -268 q 486 -206 456 -206 q 560 -155 560 -206 q 460 -97 560 -115 l 516 -26 q 248 81 340 -15 q 155 350 155 177 q 337 829 155 629 q 772 1029 518 1029 q 945 992 875 1029 q 1016 903 1016 956 q 955 798 1016 855 q 722 962 873 962 q 435 791 557 962 q 312 391 312 620 q 386 160 312 245 q 585 75 459 75 q 978 279 799 75 z "},"É":{"ha":861,"x_min":125,"x_max":1015,"o":"m 437 502 l 402 328 q 380 174 380 219 q 555 83 380 83 q 861 145 729 83 q 760 20 831 43 q 612 -10 718 5 q 449 -25 506 -25 q 227 122 227 -25 q 249 273 227 161 l 294 502 l 284 502 q 151 472 216 502 q 213 566 189 545 q 289 586 237 586 l 311 586 l 378 920 l 358 920 q 125 840 233 920 q 218 980 159 949 q 503 1004 264 1004 l 705 1004 q 1015 1042 896 1004 q 920 939 962 957 q 739 920 878 920 l 520 920 l 453 586 l 593 586 q 828 623 741 586 q 746 519 782 537 q 577 502 710 502 l 437 502 m 552 1088 q 608 1144 585 1116 l 640 1183 q 733 1271 696 1249 q 825 1293 769 1293 q 909 1284 873 1293 q 787 1200 854 1259 l 760 1177 q 552 1088 656 1088 z "},"Ñ":{"ha":1131,"x_min":177,"x_max":1156,"o":"m 422 751 l 336 317 q 312 131 312 194 q 366 -1 312 37 q 253 -25 304 -25 q 177 45 177 -25 q 258 458 177 111 l 359 890 l 339 943 q 239 1073 299 1051 q 370 1121 343 1121 q 438 1079 416 1121 q 638 618 461 1036 q 900 148 837 148 q 991 348 947 148 q 1036 758 1036 547 q 955 981 1036 928 q 1075 1029 1021 1029 q 1156 897 1156 1029 q 1119 577 1156 793 q 1041 214 1083 361 q 887 -25 972 -25 q 730 104 814 -25 q 507 561 646 233 q 445 703 461 667 l 422 751 m 636 1080 q 576 1135 576 1098 q 620 1211 576 1175 q 714 1246 664 1246 q 795 1223 756 1246 l 814 1211 q 876 1188 851 1188 q 937 1261 930 1188 q 995 1205 995 1245 q 951 1125 995 1163 q 857 1088 907 1088 q 765 1123 825 1088 l 739 1139 q 686 1155 711 1155 q 636 1093 636 1155 l 636 1080 z "},"Ö":{"ha":1200,"x_min":165,"x_max":1240,"o":"m 624 888 q 901 1029 729 1029 q 1144 922 1048 1029 q 1240 651 1240 815 q 1034 185 1240 395 q 579 -25 829 -25 q 282 94 399 -25 q 165 395 165 213 q 299 736 165 593 q 624 888 432 880 m 572 814 q 382 685 452 785 q 312 438 312 585 q 407 169 312 275 q 649 62 502 62 q 960 229 825 62 q 1095 615 1095 396 q 1028 829 1095 743 q 863 916 961 916 q 690 835 763 916 q 616 643 616 754 q 654 498 616 564 q 555 538 580 511 q 530 631 530 564 q 572 814 530 719 m 621 1206 l 637 1206 q 737 1168 737 1206 q 725 1088 737 1139 q 679 1089 701 1089 q 621 1139 621 1089 l 623 1163 q 625 1183 625 1173 q 621 1206 625 1195 m 890 1205 l 905 1205 q 1005 1168 1005 1205 q 993 1087 1005 1139 q 947 1088 971 1088 q 889 1137 889 1088 l 892 1162 q 892 1182 892 1171 q 890 1205 892 1194 z "},"Ü":{"ha":1182,"x_min":154,"x_max":1204,"o":"m 852 302 q 452 8 648 8 q 276 86 345 8 q 207 283 207 163 q 393 918 207 522 q 288 907 336 907 q 195 939 225 907 q 154 1048 165 970 q 286 1008 205 1008 q 593 1032 332 1008 q 354 318 354 564 q 398 174 354 230 q 510 117 441 117 q 701 212 606 117 q 879 486 795 307 q 985 892 939 817 q 1173 968 1031 968 q 1050 637 1111 889 q 990 207 990 385 q 1076 66 990 66 q 1202 124 1129 66 q 1204 100 1204 108 q 1149 14 1204 54 q 1028 -25 1093 -25 q 846 207 846 -25 q 852 302 846 239 m 614 1206 l 629 1206 q 730 1168 730 1206 q 718 1088 730 1139 q 671 1089 693 1089 q 614 1139 614 1089 l 616 1163 q 617 1183 617 1173 q 614 1206 617 1195 m 882 1205 l 897 1205 q 998 1168 998 1205 q 985 1087 998 1139 q 939 1088 964 1088 q 882 1137 882 1088 l 884 1162 q 885 1182 885 1171 q 882 1205 885 1194 z "},"á":{"ha":1099,"x_min":168,"x_max":1468,"o":"m 761 414 q 547 109 674 235 q 326 -17 420 -17 q 211 47 254 -17 q 168 218 168 111 q 296 591 168 430 q 593 753 425 753 q 815 689 696 753 q 959 752 833 752 q 985 751 967 752 q 926 590 947 692 l 915 532 q 895 307 895 436 q 964 159 895 159 q 1165 281 1038 159 q 1415 593 1292 404 l 1468 556 q 1181 183 1342 332 q 903 33 1019 33 q 757 277 757 33 q 761 414 757 328 m 793 576 q 556 669 650 669 q 379 545 454 669 q 304 250 304 420 q 394 113 304 113 q 765 538 491 113 q 793 576 768 544 m 622 870 q 678 926 654 899 l 710 965 q 803 1053 766 1031 q 895 1075 839 1075 q 979 1066 943 1075 q 857 983 924 1041 l 829 960 q 622 870 726 870 z "},"à":{"ha":1099,"x_min":168,"x_max":1468,"o":"m 761 414 q 547 109 674 235 q 326 -17 420 -17 q 211 47 254 -17 q 168 218 168 111 q 296 591 168 430 q 593 753 425 753 q 815 689 696 753 q 959 752 833 752 q 985 751 967 752 q 926 590 947 692 l 915 532 q 895 307 895 436 q 964 159 895 159 q 1165 281 1038 159 q 1415 593 1292 404 l 1468 556 q 1181 183 1342 332 q 903 33 1019 33 q 757 277 757 33 q 761 414 757 328 m 793 576 q 556 669 650 669 q 379 545 454 669 q 304 250 304 420 q 394 113 304 113 q 765 538 491 113 q 793 576 768 544 m 828 870 q 805 869 813 869 q 646 952 725 869 q 576 1050 578 1024 q 689 1114 574 1086 q 828 870 730 968 z "},"â":{"ha":1099,"x_min":168,"x_max":1468,"o":"m 761 414 q 547 109 674 235 q 326 -17 420 -17 q 211 47 254 -17 q 168 218 168 111 q 296 591 168 430 q 593 753 425 753 q 815 689 696 753 q 959 752 833 752 q 985 751 967 752 q 926 590 947 692 l 915 532 q 895 307 895 436 q 964 159 895 159 q 1165 281 1038 159 q 1415 593 1292 404 l 1468 556 q 1181 183 1342 332 q 903 33 1019 33 q 757 277 757 33 q 761 414 757 328 m 793 576 q 556 669 650 669 q 379 545 454 669 q 304 250 304 420 q 394 113 304 113 q 765 538 491 113 q 793 576 768 544 m 766 996 q 543 870 629 870 q 490 880 522 870 q 653 996 608 958 l 677 1015 q 853 1088 745 1072 q 945 870 876 953 q 844 892 875 870 q 766 996 812 914 z "},"ä":{"ha":1099,"x_min":168,"x_max":1468,"o":"m 761 414 q 547 109 674 235 q 326 -17 420 -17 q 211 47 254 -17 q 168 218 168 111 q 296 591 168 430 q 593 753 425 753 q 815 689 696 753 q 959 752 833 752 q 985 751 967 752 q 926 590 947 692 l 915 532 q 895 307 895 436 q 964 159 895 159 q 1165 281 1038 159 q 1415 593 1292 404 l 1468 556 q 1181 183 1342 332 q 903 33 1019 33 q 757 277 757 33 q 761 414 757 328 m 793 576 q 556 669 650 669 q 379 545 454 669 q 304 250 304 420 q 394 113 304 113 q 765 538 491 113 q 793 576 768 544 m 558 988 l 574 988 q 674 951 674 988 q 662 870 674 921 q 616 871 637 871 q 558 921 558 871 l 560 945 q 562 966 562 956 q 558 988 562 977 m 827 987 l 842 987 q 942 950 942 987 q 930 869 942 921 q 884 871 908 871 q 826 920 826 871 l 829 945 q 829 964 829 954 q 827 987 829 977 z "},"ã":{"ha":1099,"x_min":168,"x_max":1468,"o":"m 761 414 q 547 109 674 235 q 326 -17 420 -17 q 211 47 254 -17 q 168 218 168 111 q 296 591 168 430 q 593 753 425 753 q 815 689 696 753 q 959 752 833 752 q 985 751 967 752 q 926 590 947 692 l 915 532 q 895 307 895 436 q 964 159 895 159 q 1165 281 1038 159 q 1415 593 1292 404 l 1468 556 q 1181 183 1342 332 q 903 33 1019 33 q 757 277 757 33 q 761 414 757 328 m 793 576 q 556 669 650 669 q 379 545 454 669 q 304 250 304 420 q 394 113 304 113 q 765 538 491 113 q 793 576 768 544 m 602 862 q 541 917 541 880 q 585 993 541 958 q 680 1029 629 1029 q 760 1006 722 1029 l 780 993 q 842 970 817 970 q 903 1044 896 970 q 960 987 960 1027 q 916 908 960 945 q 823 870 872 870 q 730 905 791 870 l 704 921 q 651 937 677 937 q 602 875 602 937 l 602 862 z "},"å":{"ha":1099,"x_min":168,"x_max":1468,"o":"m 761 414 q 547 109 674 235 q 326 -17 420 -17 q 211 47 254 -17 q 168 218 168 111 q 296 591 168 430 q 593 753 425 753 q 815 689 696 753 q 959 752 833 752 q 985 751 967 752 q 926 590 947 692 l 915 532 q 895 307 895 436 q 964 159 895 159 q 1165 281 1038 159 q 1415 593 1292 404 l 1468 556 q 1181 183 1342 332 q 903 33 1019 33 q 757 277 757 33 q 761 414 757 328 m 793 576 q 556 669 650 669 q 379 545 454 669 q 304 250 304 420 q 394 113 304 113 q 765 538 491 113 q 793 576 768 544 m 805 1090 q 911 981 911 1051 q 869 901 911 932 q 762 869 827 869 q 667 896 705 869 q 628 961 628 922 q 679 1060 628 1008 q 798 1133 730 1111 q 806 1103 806 1114 q 805 1090 806 1098 m 783 1053 q 699 966 699 1001 q 759 932 699 932 q 852 983 852 932 q 783 1053 852 1010 z "},"ç":{"ha":793,"x_min":178,"x_max":1161,"o":"m 1161 554 q 905 213 1059 379 q 701 31 783 81 q 492 -38 618 -19 l 470 -65 q 568 -149 568 -90 q 524 -231 568 -194 q 426 -268 479 -268 q 340 -202 340 -268 l 340 -195 q 401 -208 379 -208 q 477 -156 477 -208 q 378 -97 477 -115 l 426 -35 q 178 279 178 11 q 318 612 178 471 q 648 753 457 753 q 774 724 725 753 q 823 648 823 694 q 696 536 823 574 q 703 568 703 553 q 587 677 703 677 q 400 565 486 677 q 315 317 315 452 q 372 139 315 208 q 519 71 429 71 q 1104 588 769 71 l 1161 554 z "},"é":{"ha":812,"x_min":168,"x_max":1181,"o":"m 317 282 q 485 83 317 83 q 806 222 631 83 q 1123 589 982 361 l 1181 557 q 835 146 1048 309 q 432 -17 623 -17 q 239 62 310 -17 q 168 277 168 140 q 297 613 168 473 q 606 753 425 753 q 746 709 694 753 q 799 591 799 665 q 653 376 799 469 q 317 282 507 282 m 322 347 q 565 429 464 355 q 667 600 667 503 q 589 686 667 686 q 419 587 497 686 q 322 347 341 488 m 513 870 q 569 926 545 899 l 601 965 q 693 1053 657 1031 q 785 1075 730 1075 q 870 1066 833 1075 q 748 983 815 1041 l 720 960 q 513 870 616 870 z "},"è":{"ha":812,"x_min":168,"x_max":1181,"o":"m 317 282 q 485 83 317 83 q 806 222 631 83 q 1123 589 982 361 l 1181 557 q 835 146 1048 309 q 432 -17 623 -17 q 239 62 310 -17 q 168 277 168 140 q 297 613 168 473 q 606 753 425 753 q 746 709 694 753 q 799 591 799 665 q 653 376 799 469 q 317 282 507 282 m 322 347 q 565 429 464 355 q 667 600 667 503 q 589 686 667 686 q 419 587 497 686 q 322 347 341 488 m 718 870 q 695 869 703 869 q 536 952 615 869 q 467 1050 468 1024 q 579 1114 465 1086 q 718 870 621 968 z "},"ê":{"ha":812,"x_min":168,"x_max":1181,"o":"m 317 282 q 485 83 317 83 q 806 222 631 83 q 1123 589 982 361 l 1181 557 q 835 146 1048 309 q 432 -17 623 -17 q 239 62 310 -17 q 168 277 168 140 q 297 613 168 473 q 606 753 425 753 q 746 709 694 753 q 799 591 799 665 q 653 376 799 469 q 317 282 507 282 m 322 347 q 565 429 464 355 q 667 600 667 503 q 589 686 667 686 q 419 587 497 686 q 322 347 341 488 m 640 996 q 417 870 503 870 q 364 880 396 870 q 527 996 481 958 l 551 1015 q 727 1088 619 1072 q 819 870 749 953 q 718 892 749 870 q 640 996 686 914 z "},"ë":{"ha":812,"x_min":168,"x_max":1181,"o":"m 317 282 q 485 83 317 83 q 806 222 631 83 q 1123 589 982 361 l 1181 557 q 835 146 1048 309 q 432 -17 623 -17 q 239 62 310 -17 q 168 277 168 140 q 297 613 168 473 q 606 753 425 753 q 746 709 694 753 q 799 591 799 665 q 653 376 799 469 q 317 282 507 282 m 322 347 q 565 429 464 355 q 667 600 667 503 q 589 686 667 686 q 419 587 497 686 q 322 347 341 488 m 433 988 l 448 988 q 549 951 549 988 q 536 870 549 921 q 490 871 512 871 q 433 921 433 871 l 435 945 q 436 966 436 956 q 433 988 436 977 m 701 987 l 716 987 q 817 950 817 987 q 804 869 817 921 q 758 871 783 871 q 701 920 701 871 l 703 945 q 704 964 704 954 q 701 987 704 977 z "},"í":{"ha":616,"x_min":224,"x_max":984,"o":"m 984 555 q 674 135 831 286 q 393 -17 517 -17 q 270 33 317 -17 q 224 163 224 82 q 237 260 224 193 l 252 334 q 286 561 286 496 q 262 624 286 600 q 373 644 351 644 q 423 574 423 644 q 404 424 423 522 l 377 292 q 357 168 357 196 q 429 83 357 83 q 654 226 513 83 q 928 588 795 369 l 984 555 m 325 870 q 381 926 357 899 l 413 965 q 506 1053 469 1031 q 597 1075 542 1075 q 682 1066 646 1075 q 560 983 627 1041 l 532 960 q 325 870 429 870 z "},"ì":{"ha":616,"x_min":224,"x_max":984,"o":"m 984 555 q 674 135 831 286 q 393 -17 517 -17 q 270 33 317 -17 q 224 163 224 82 q 237 260 224 193 l 252 334 q 286 561 286 496 q 262 624 286 600 q 373 644 351 644 q 423 574 423 644 q 404 424 423 522 l 377 292 q 357 168 357 196 q 429 83 357 83 q 654 226 513 83 q 928 588 795 369 l 984 555 m 489 870 q 466 869 474 869 q 307 952 386 869 q 237 1050 239 1024 q 350 1114 235 1086 q 489 870 391 968 z "},"î":{"ha":616,"x_min":159,"x_max":984,"o":"m 984 555 q 674 135 831 286 q 393 -17 517 -17 q 270 33 317 -17 q 224 163 224 82 q 237 260 224 193 l 252 334 q 286 561 286 496 q 262 624 286 600 q 373 644 351 644 q 423 574 423 644 q 404 424 423 522 l 377 292 q 357 168 357 196 q 429 83 357 83 q 654 226 513 83 q 928 588 795 369 l 984 555 m 435 996 q 212 870 298 870 q 159 880 191 870 q 322 996 277 958 l 346 1015 q 522 1088 414 1072 q 614 870 545 953 q 513 892 544 870 q 435 996 481 914 z "},"ï":{"ha":616,"x_min":203,"x_max":985,"o":"m 985 555 q 675 135 831 286 q 393 -17 518 -17 q 271 33 317 -17 q 224 163 224 82 q 238 260 224 193 l 253 334 q 286 561 286 496 q 263 624 286 600 q 374 644 351 644 q 424 574 424 644 q 404 424 424 522 l 378 292 q 358 168 358 196 q 429 83 358 83 q 655 226 514 83 q 928 588 796 369 l 985 555 m 203 988 l 218 988 q 319 951 319 988 q 307 870 319 921 q 260 871 282 871 q 203 921 203 871 l 205 945 q 206 966 206 956 q 203 988 206 977 m 471 987 l 486 987 q 587 950 587 987 q 574 869 587 921 q 528 871 553 871 q 471 920 471 871 l 473 945 q 474 964 474 954 q 471 987 474 977 z "},"ñ":{"ha":1120,"x_min":259,"x_max":1488,"o":"m 405 243 q 838 753 646 753 q 987 454 987 753 l 989 372 q 1003 175 989 230 q 1057 121 1018 121 q 1189 214 1115 121 q 1431 587 1263 307 l 1488 554 q 1221 136 1339 273 q 1009 0 1103 0 q 888 83 923 0 q 853 372 853 167 l 852 431 q 838 587 852 542 q 789 632 824 632 q 500 275 699 632 q 437 162 452 187 q 385 31 385 71 q 394 -1 385 14 q 328 -17 355 -17 q 259 59 259 -17 q 277 254 259 81 l 292 401 q 302 547 302 495 q 269 660 302 618 q 317 676 283 665 q 384 691 359 691 q 437 614 437 691 q 427 474 437 573 q 422 433 425 452 l 405 243 m 600 862 q 539 917 539 880 q 583 993 539 958 q 677 1029 627 1029 q 758 1006 720 1029 l 778 993 q 840 970 814 970 q 901 1044 894 970 q 958 987 958 1027 q 914 908 958 945 q 821 870 870 870 q 728 905 789 870 l 702 921 q 649 937 675 937 q 600 875 600 937 l 600 862 z "},"ó":{"ha":931,"x_min":157,"x_max":1299,"o":"m 907 500 q 909 471 909 484 q 776 129 909 275 q 465 -17 643 -17 q 242 70 328 -17 q 157 296 157 157 q 268 570 157 454 q 529 686 378 686 q 578 680 552 686 q 561 732 561 711 q 583 794 561 764 q 859 625 749 781 q 1093 548 971 548 q 1265 602 1173 548 l 1299 544 q 1078 469 1191 469 q 907 500 1002 469 m 753 557 q 649 612 696 574 q 591 619 614 619 q 387 515 476 619 q 298 279 298 412 q 352 120 298 182 q 490 58 406 58 q 688 174 605 58 q 770 450 770 290 q 753 557 770 505 m 591 870 q 648 926 624 899 l 680 965 q 772 1053 736 1031 q 864 1075 808 1075 q 949 1066 912 1075 q 827 983 894 1041 l 799 960 q 591 870 695 870 z "},"ò":{"ha":931,"x_min":157,"x_max":1299,"o":"m 907 500 q 909 471 909 484 q 776 129 909 275 q 465 -17 643 -17 q 242 70 328 -17 q 157 296 157 157 q 268 570 157 454 q 529 686 378 686 q 578 680 552 686 q 561 732 561 711 q 583 794 561 764 q 859 625 749 781 q 1093 548 971 548 q 1265 602 1173 548 l 1299 544 q 1078 469 1191 469 q 907 500 1002 469 m 753 557 q 649 612 696 574 q 591 619 614 619 q 387 515 476 619 q 298 279 298 412 q 352 120 298 182 q 490 58 406 58 q 688 174 605 58 q 770 450 770 290 q 753 557 770 505 m 778 870 q 755 869 763 869 q 595 952 675 869 q 526 1050 528 1024 q 639 1114 524 1086 q 778 870 680 968 z "},"ô":{"ha":931,"x_min":157,"x_max":1299,"o":"m 907 500 q 909 471 909 484 q 776 129 909 275 q 465 -17 643 -17 q 242 70 328 -17 q 157 296 157 157 q 268 570 157 454 q 529 686 378 686 q 578 680 552 686 q 561 732 561 711 q 583 794 561 764 q 859 625 749 781 q 1093 548 971 548 q 1265 602 1173 548 l 1299 544 q 1078 469 1191 469 q 907 500 1002 469 m 753 557 q 649 612 696 574 q 591 619 614 619 q 387 515 476 619 q 298 279 298 412 q 352 120 298 182 q 490 58 406 58 q 688 174 605 58 q 770 450 770 290 q 753 557 770 505 m 723 996 q 500 870 586 870 q 447 880 479 870 q 610 996 564 958 l 633 1015 q 810 1088 702 1072 q 901 870 832 953 q 800 892 831 870 q 723 996 769 914 z "},"ö":{"ha":931,"x_min":157,"x_max":1299,"o":"m 907 500 q 909 471 909 484 q 776 129 909 275 q 465 -17 643 -17 q 242 70 328 -17 q 157 296 157 157 q 268 570 157 454 q 529 686 378 686 q 578 680 552 686 q 561 732 561 711 q 583 794 561 764 q 859 625 749 781 q 1093 548 971 548 q 1265 602 1173 548 l 1299 544 q 1078 469 1191 469 q 907 500 1002 469 m 753 557 q 649 612 696 574 q 591 619 614 619 q 387 515 476 619 q 298 279 298 412 q 352 120 298 182 q 490 58 406 58 q 688 174 605 58 q 770 450 770 290 q 753 557 770 505 m 515 988 l 531 988 q 631 951 631 988 q 619 870 631 921 q 573 871 595 871 q 515 921 515 871 l 517 945 q 519 966 519 956 q 515 988 519 977 m 784 987 l 799 987 q 899 950 899 987 q 887 869 899 921 q 841 871 865 871 q 783 920 783 871 l 786 945 q 787 964 787 954 q 784 987 787 977 z "},"õ":{"ha":931,"x_min":157,"x_max":1299,"o":"m 907 500 q 909 471 909 484 q 776 129 909 275 q 465 -17 643 -17 q 242 70 328 -17 q 157 296 157 157 q 268 570 157 454 q 529 686 378 686 q 578 680 552 686 q 561 732 561 711 q 583 794 561 764 q 859 625 749 781 q 1093 548 971 548 q 1265 602 1173 548 l 1299 544 q 1078 469 1191 469 q 907 500 1002 469 m 753 557 q 649 612 696 574 q 591 619 614 619 q 387 515 476 619 q 298 279 298 412 q 352 120 298 182 q 490 58 406 58 q 688 174 605 58 q 770 450 770 290 q 753 557 770 505 m 564 862 q 503 917 503 880 q 547 993 503 958 q 642 1029 591 1029 q 722 1006 684 1029 l 742 993 q 804 970 779 970 q 865 1044 858 970 q 922 987 922 1027 q 878 908 922 945 q 785 870 834 870 q 692 905 753 870 l 666 921 q 613 937 639 937 q 564 875 564 937 l 564 862 z "},"ú":{"ha":1084,"x_min":212,"x_max":1453,"o":"m 794 418 q 585 104 701 224 q 378 -17 470 -17 q 258 35 304 -17 q 212 171 212 87 q 284 564 212 278 q 304 662 304 642 q 291 706 304 682 l 385 707 q 445 660 445 707 q 406 492 445 631 q 390 435 393 451 l 380 394 q 350 205 350 270 q 419 104 350 104 q 707 385 532 104 q 849 711 849 614 q 841 738 849 724 q 935 753 897 753 q 995 717 995 753 q 989 691 995 708 q 977 642 987 681 q 963 587 975 634 q 950 534 954 553 l 943 501 q 921 292 921 389 q 993 142 921 142 q 1396 590 1152 142 l 1453 556 q 944 21 1175 21 q 789 290 789 21 q 794 418 789 341 m 614 870 q 670 926 646 899 l 702 965 q 794 1053 758 1031 q 886 1075 831 1075 q 971 1066 935 1075 q 849 983 916 1041 l 821 960 q 614 870 718 870 z "},"ù":{"ha":1084,"x_min":212,"x_max":1453,"o":"m 794 418 q 585 104 701 224 q 378 -17 470 -17 q 258 35 304 -17 q 212 171 212 87 q 284 564 212 278 q 304 662 304 642 q 291 706 304 682 l 385 707 q 445 660 445 707 q 406 492 445 631 q 390 435 393 451 l 380 394 q 350 205 350 270 q 419 104 350 104 q 707 385 532 104 q 849 711 849 614 q 841 738 849 724 q 935 753 897 753 q 995 717 995 753 q 989 691 995 708 q 977 642 987 681 q 963 587 975 634 q 950 534 954 553 l 943 501 q 921 292 921 389 q 993 142 921 142 q 1396 590 1152 142 l 1453 556 q 944 21 1175 21 q 789 290 789 21 q 794 418 789 341 m 793 870 q 770 869 778 869 q 610 952 690 869 q 541 1050 543 1024 q 654 1114 539 1086 q 793 870 695 968 z "},"û":{"ha":1084,"x_min":212,"x_max":1453,"o":"m 794 418 q 585 104 701 224 q 378 -17 470 -17 q 258 35 304 -17 q 212 171 212 87 q 284 564 212 278 q 304 662 304 642 q 291 706 304 682 l 385 707 q 445 660 445 707 q 406 492 445 631 q 390 435 393 451 l 380 394 q 350 205 350 270 q 419 104 350 104 q 707 385 532 104 q 849 711 849 614 q 841 738 849 724 q 935 753 897 753 q 995 717 995 753 q 989 691 995 708 q 977 642 987 681 q 963 587 975 634 q 950 534 954 553 l 943 501 q 921 292 921 389 q 993 142 921 142 q 1396 590 1152 142 l 1453 556 q 944 21 1175 21 q 789 290 789 21 q 794 418 789 341 m 747 996 q 524 870 610 870 q 471 880 503 870 q 634 996 589 958 l 658 1015 q 834 1088 726 1072 q 926 870 857 953 q 825 892 856 870 q 747 996 793 914 z "},"ü":{"ha":1084,"x_min":212,"x_max":1453,"o":"m 794 418 q 585 104 701 224 q 378 -17 470 -17 q 258 35 304 -17 q 212 171 212 87 q 284 564 212 278 q 304 662 304 642 q 291 706 304 682 l 385 707 q 445 660 445 707 q 406 492 445 631 q 390 435 393 451 l 380 394 q 350 205 350 270 q 419 104 350 104 q 707 385 532 104 q 849 711 849 614 q 841 738 849 724 q 935 753 897 753 q 995 717 995 753 q 989 691 995 708 q 977 642 987 681 q 963 587 975 634 q 950 534 954 553 l 943 501 q 921 292 921 389 q 993 142 921 142 q 1396 590 1152 142 l 1453 556 q 944 21 1175 21 q 789 290 789 21 q 794 418 789 341 m 490 988 l 505 988 q 606 951 606 988 q 593 870 606 921 q 547 871 569 871 q 490 921 490 871 l 492 945 q 493 966 493 956 q 490 988 493 977 m 758 987 l 773 987 q 873 950 873 987 q 861 869 873 921 q 815 871 840 871 q 758 920 758 871 l 760 945 q 761 964 761 954 q 758 987 761 977 z "},"†":{"ha":937,"x_min":268,"x_max":950,"o":"m 631 564 l 602 416 q 525 -134 525 31 q 543 -208 525 -169 q 394 -95 394 -201 l 517 519 l 526 564 q 268 519 358 564 q 399 640 307 640 q 467 637 425 640 q 541 635 519 635 l 551 688 q 586 945 586 864 q 566 1024 586 991 q 704 931 704 1015 q 664 720 704 883 q 650 662 652 671 l 645 635 l 677 635 q 950 680 873 635 q 829 556 925 556 q 631 564 747 556 z "},"°":{"ha":410,"x_min":250,"x_max":525,"o":"m 397 1020 q 525 916 525 1002 q 477 828 525 865 q 361 791 429 791 q 250 871 250 791 q 382 1060 250 985 q 397 1020 395 1040 m 382 979 q 318 884 318 918 q 359 853 318 853 q 433 874 398 853 q 467 918 467 895 q 382 979 467 949 z "},"¢":{"ha":937,"x_min":241,"x_max":891,"o":"m 545 93 l 535 43 q 521 -80 521 -30 l 522 -101 q 509 -102 513 -102 q 463 -87 484 -102 q 441 -56 441 -73 q 467 62 441 -43 q 475 98 470 75 q 241 414 241 152 q 347 707 241 581 q 629 874 453 832 l 638 918 q 649 1005 649 972 q 648 1029 649 1013 q 719 987 719 1023 q 710 933 719 974 q 699 880 703 899 l 720 880 q 842 846 793 880 q 891 762 891 812 q 773 684 891 724 q 775 703 775 697 q 684 804 775 776 l 565 191 q 595 189 586 189 q 820 298 699 189 q 824 263 824 275 q 746 155 824 202 q 545 93 669 107 m 615 802 q 445 668 512 770 q 378 442 378 566 q 498 211 378 279 l 615 802 z "},"£":{"ha":937,"x_min":226,"x_max":908,"o":"m 235 108 q 397 450 397 233 l 396 502 l 369 502 q 235 478 291 502 q 278 552 255 536 q 363 569 301 569 l 392 569 q 389 643 389 625 q 510 913 389 798 q 793 1029 630 1029 q 908 952 908 1029 q 871 862 908 914 q 720 941 819 941 q 522 663 522 941 q 525 598 522 651 q 526 569 526 583 l 565 569 q 776 598 707 569 q 771 581 772 587 q 729 513 755 524 q 587 502 704 502 l 530 502 q 330 115 530 286 q 665 138 538 138 q 820 106 784 138 q 863 -39 856 73 q 572 13 762 13 q 398 1 481 13 l 341 -7 q 305 -12 321 -9 q 269 -17 281 -17 q 226 24 226 -17 q 230 60 226 33 q 233 92 231 65 l 235 108 z "},"§":{"ha":937,"x_min":201,"x_max":840,"o":"m 251 11 q 454 -134 319 -134 q 589 -84 532 -134 q 646 32 646 -35 q 497 194 646 114 l 450 219 q 387 252 435 228 q 252 426 252 322 q 410 640 252 558 q 345 772 345 693 q 448 950 345 871 q 680 1029 551 1029 q 840 945 840 1029 q 800 865 840 912 q 648 954 752 954 q 512 909 567 954 q 456 800 456 865 q 576 679 456 739 l 633 650 q 838 410 838 546 q 703 209 838 298 q 768 70 768 144 q 660 -118 768 -35 q 416 -201 552 -201 q 267 -167 332 -201 q 201 -88 201 -132 q 251 11 201 -55 m 649 249 q 730 363 730 295 q 685 464 730 423 q 498 574 641 505 q 459 593 488 578 q 361 468 361 534 q 489 340 361 408 l 547 309 q 649 249 602 281 z "},"•":{"ha":937,"x_min":430,"x_max":666,"o":"m 430 381 q 473 459 430 425 q 569 494 515 494 q 666 415 666 494 q 621 334 666 371 q 523 297 576 297 q 430 381 430 297 z "},"¶":{"ha":937,"x_min":255,"x_max":975,"o":"m 637 -118 q 545 -50 545 -111 q 570 113 545 -12 l 630 414 q 603 413 611 413 q 548 419 583 413 q 527 422 541 420 l 463 96 q 430 -154 430 -65 q 435 -197 430 -172 q 412 -199 420 -199 q 349 -157 349 -199 q 392 80 349 -139 l 463 437 q 255 668 255 497 q 342 871 255 783 q 572 987 430 960 l 577 1012 q 581 1050 581 1029 q 557 1126 581 1101 q 571 1128 566 1128 q 609 1134 595 1134 q 655 1087 655 1134 q 645 1015 655 1064 l 642 997 q 696 1000 674 1000 l 747 999 l 750 1018 q 755 1057 755 1040 q 743 1114 755 1084 q 780 1117 764 1117 q 833 1080 833 1117 q 823 1036 833 1066 q 816 1010 817 1015 l 813 997 q 975 896 975 969 q 952 832 975 867 q 800 930 907 908 l 711 486 q 864 539 798 494 q 828 452 864 479 q 697 414 793 425 l 641 132 q 620 -26 620 27 q 637 -118 620 -72 m 558 914 q 361 689 361 842 q 480 524 361 578 l 558 914 m 734 937 q 628 929 684 937 l 543 501 q 644 484 591 488 l 734 937 z "},"ß":{"ha":862,"x_min":136,"x_max":934,"o":"m 511 180 q 569 86 526 121 q 665 50 611 50 q 771 91 730 50 q 812 197 812 132 q 713 378 812 275 l 656 437 q 536 626 536 563 q 636 779 536 690 l 667 807 q 787 996 787 913 q 756 1076 787 1044 q 681 1109 726 1109 q 545 1025 597 1109 q 453 741 493 941 l 296 -50 q 279 -198 279 -135 q 296 -270 279 -237 q 192 -293 227 -293 q 136 -229 136 -293 q 159 -67 136 -180 l 323 758 q 473 1075 363 961 q 741 1188 583 1188 q 866 1139 813 1188 q 918 1023 918 1090 q 779 815 918 928 l 740 783 q 652 669 652 711 q 760 510 652 616 l 800 471 q 934 232 934 338 q 847 58 934 132 q 642 -17 760 -17 q 511 16 569 -17 q 454 90 454 48 q 511 180 454 127 z "},"®":{"ha":937,"x_min":289,"x_max":920,"o":"m 603 422 q 379 506 469 422 q 289 713 289 589 q 383 938 289 848 q 616 1029 477 1029 q 832 946 745 1029 q 920 741 920 863 q 826 516 920 610 q 603 422 732 422 m 602 490 q 780 560 707 490 q 852 734 852 631 q 783 897 852 831 q 610 962 713 962 q 433 889 507 962 q 359 714 359 817 q 428 553 359 616 q 602 490 497 490 m 562 721 l 551 669 q 541 600 541 619 q 553 557 541 581 l 538 557 q 471 594 471 557 q 487 682 471 600 l 526 882 q 633 903 595 903 q 744 818 744 903 q 643 706 744 743 q 739 587 697 612 q 679 560 705 560 q 636 582 652 560 q 562 721 620 604 m 564 732 q 675 804 675 743 q 621 846 675 846 q 585 836 608 846 l 564 732 z "},"©":{"ha":1217,"x_min":154,"x_max":1265,"o":"m 404 854 q 749 1029 425 1029 q 1119 900 973 1029 q 1265 570 1265 770 q 1085 149 1265 323 q 650 -25 905 -25 q 296 112 437 -25 q 154 454 154 249 q 220 701 154 594 q 404 854 287 808 m 518 769 q 467 778 490 778 q 303 681 374 778 q 233 456 233 585 q 352 166 233 279 q 660 54 471 54 q 1036 202 880 54 q 1192 561 1192 351 q 1069 845 1192 736 q 750 954 947 954 q 458 865 575 954 q 499 871 484 871 q 538 837 538 871 q 518 769 538 804 m 934 337 q 660 201 814 201 q 500 258 564 201 q 436 403 436 316 q 559 676 436 553 q 833 799 683 799 q 958 730 958 799 q 926 654 958 698 q 791 741 890 741 q 617 640 696 741 q 538 420 538 540 q 692 276 538 276 q 901 374 811 276 l 934 337 z "},"™":{"ha":1322,"x_min":215,"x_max":1400,"o":"m 418 983 l 404 983 q 215 928 311 983 q 222 954 220 945 q 270 1054 243 1033 q 371 1076 296 1076 l 463 1072 l 524 1071 l 557 1071 q 760 1096 670 1071 q 638 979 747 979 q 590 981 619 979 q 546 983 557 983 l 528 983 l 488 785 q 471 657 471 702 q 494 574 471 607 q 425 561 459 561 q 350 620 350 561 q 367 724 350 642 l 418 983 m 912 941 l 874 750 q 859 647 859 676 q 886 562 859 599 q 862 561 871 561 q 762 626 762 561 q 795 792 762 654 l 828 919 q 848 1046 848 998 q 831 1120 848 1087 q 902 1138 877 1138 q 967 1108 947 1138 q 1002 983 986 1078 l 1019 892 q 1059 744 1036 796 l 1139 895 q 1171 960 1145 906 q 1227 1041 1200 1022 q 1334 1076 1254 1061 l 1373 1083 q 1333 787 1333 911 q 1400 562 1333 627 q 1301 519 1343 519 q 1238 560 1255 519 q 1220 708 1220 601 q 1240 955 1220 796 q 1124 699 1129 708 q 1030 602 1078 602 q 963 668 986 602 q 912 941 941 734 z "},"´":{"ha":937,"x_min":604,"x_max":961,"o":"m 604 870 q 660 926 636 899 l 692 965 q 784 1053 748 1031 q 876 1075 821 1075 q 961 1066 924 1075 q 839 983 906 1041 l 811 960 q 604 870 707 870 z "},"¨":{"ha":937,"x_min":505,"x_max":889,"o":"m 505 988 l 521 988 q 621 951 621 988 q 609 870 621 921 q 563 871 585 871 q 505 921 505 871 l 507 945 q 509 966 509 956 q 505 988 509 977 m 774 987 l 789 987 q 889 950 889 987 q 877 869 889 921 q 831 871 855 871 q 773 920 773 871 l 776 945 q 777 964 777 954 q 774 987 777 977 z "},"≠":{"ha":937,"x_min":136,"x_max":933,"o":"m 221 422 q 276 543 239 513 q 402 574 312 574 q 459 572 426 574 q 532 569 518 569 l 584 569 q 603 596 596 587 q 766 732 694 732 q 831 722 800 732 q 708 569 772 668 q 933 614 845 569 q 856 496 907 524 q 667 469 806 469 l 639 469 q 556 330 608 422 l 592 330 q 800 339 741 330 q 912 378 859 348 q 849 250 890 274 q 655 226 808 226 l 504 226 q 473 123 473 151 q 478 94 473 111 q 396 75 434 75 q 344 113 344 75 q 372 197 344 136 q 386 226 377 207 q 136 180 201 226 q 142 204 140 197 q 203 311 164 292 q 399 330 243 330 l 439 330 l 520 469 q 318 460 374 469 q 221 422 262 451 z "},"Æ":{"ha":1307,"x_min":60,"x_max":1459,"o":"m 730 448 l 409 448 q 235 51 235 182 q 248 11 235 32 q 127 -25 165 -25 q 77 23 77 -25 q 292 448 77 142 l 264 448 q 60 408 146 448 q 121 508 87 492 q 313 523 155 523 l 350 523 q 869 1038 772 1038 q 944 1004 903 1038 l 1152 1004 q 1459 1040 1317 1004 q 1373 943 1413 966 q 1250 920 1332 920 l 1186 920 l 966 920 l 886 523 l 1027 523 q 1261 563 1158 523 q 1185 465 1222 482 q 1013 448 1148 448 l 871 448 l 848 330 q 825 165 825 209 q 1002 79 825 79 q 1306 142 1162 79 q 1201 18 1271 42 q 889 -26 1071 -26 q 672 115 672 -26 q 694 271 672 164 l 730 448 m 745 523 l 823 920 q 463 523 665 789 l 745 523 z "},"Ø":{"ha":1196,"x_min":170,"x_max":1312,"o":"m 626 888 q 899 1029 735 1029 q 1047 997 991 1029 q 1219 1130 1154 1130 q 1312 1090 1263 1130 q 1122 945 1223 1053 q 1240 654 1240 829 q 1037 186 1240 397 q 585 -25 833 -25 q 401 16 498 -25 q 334 -170 334 -113 q 338 -203 334 -185 q 236 -141 236 -193 q 336 53 236 -90 q 170 399 170 173 q 307 740 170 593 q 626 888 445 888 m 585 815 q 385 687 458 786 q 311 442 311 587 q 412 164 311 279 q 951 886 709 610 q 864 904 906 904 q 710 841 774 904 q 646 691 646 779 q 646 663 646 679 q 566 739 566 676 q 585 815 566 774 m 1017 841 q 728 497 888 707 q 467 117 569 287 q 648 63 562 63 q 959 231 823 63 q 1095 616 1095 399 q 1017 841 1095 745 z "},"∞":{"ha":1150,"x_min":155,"x_max":1176,"o":"m 637 326 q 355 163 471 163 q 155 392 155 163 q 224 598 155 510 q 387 686 294 686 q 662 454 507 686 q 992 669 854 669 q 1124 614 1072 669 q 1176 473 1176 558 q 1092 269 1176 359 q 901 180 1008 180 q 637 326 775 180 m 593 384 q 373 577 448 577 q 276 525 319 577 q 234 406 234 473 q 270 297 234 338 q 365 255 307 255 q 593 384 450 255 m 707 398 q 928 272 822 272 q 1044 322 994 272 q 1093 437 1093 372 q 1055 534 1093 495 q 960 573 1017 573 q 707 398 869 573 z "},"±":{"ha":937,"x_min":102,"x_max":952,"o":"m 507 452 l 412 452 q 182 412 239 452 q 189 438 186 429 q 240 530 205 507 q 360 553 275 553 l 427 552 l 526 552 l 532 580 q 554 748 554 692 q 546 804 554 769 q 589 812 572 812 q 663 751 663 812 q 638 610 663 734 l 627 552 l 675 552 q 952 597 871 552 q 890 479 930 506 q 739 452 850 452 l 607 452 l 599 412 q 580 251 580 315 q 588 201 580 231 q 559 199 568 199 q 471 257 471 199 q 494 388 471 281 l 507 452 m 102 -37 q 296 111 136 111 q 399 107 336 111 l 498 102 q 642 98 571 98 q 819 130 751 98 q 688 -8 787 -8 l 533 -2 l 408 3 l 287 4 q 102 -37 183 4 z "},"≤":{"ha":937,"x_min":172,"x_max":1001,"o":"m 380 507 q 737 346 631 417 q 843 195 843 275 q 830 132 843 167 q 387 404 705 275 l 321 431 q 219 480 240 464 q 172 543 197 496 q 635 705 401 600 q 1001 913 870 810 q 906 722 994 775 q 380 507 728 616 m 189 -37 q 383 111 223 111 q 486 107 422 111 l 585 102 q 729 98 658 98 q 905 130 838 98 q 774 -8 873 -8 l 619 -2 l 495 3 l 374 4 q 189 -37 270 4 z "},"≥":{"ha":937,"x_min":96,"x_max":942,"o":"m 726 507 q 449 642 585 565 q 330 728 361 691 q 298 821 298 765 q 305 893 298 857 q 566 695 383 799 q 942 530 748 591 q 777 423 907 473 l 704 395 q 597 354 680 385 q 127 115 304 243 q 229 305 138 245 q 726 507 319 364 m 96 -37 q 291 111 131 111 q 394 107 330 111 l 493 102 q 637 98 566 98 q 814 130 745 98 q 682 -8 781 -8 l 528 -2 l 403 3 l 281 4 q 96 -37 178 4 z "},"¥":{"ha":937,"x_min":203,"x_max":1075,"o":"m 641 469 l 639 460 l 673 460 q 918 475 860 460 q 850 406 885 420 q 705 393 814 393 l 655 393 l 626 393 l 606 293 l 624 293 q 845 317 772 293 q 729 218 829 218 q 678 219 710 218 q 615 222 640 222 l 592 222 l 574 134 q 562 50 562 70 q 570 9 562 31 q 445 -25 500 -25 q 409 3 409 -25 q 423 88 409 18 l 450 222 l 368 222 q 204 197 269 222 q 324 297 239 297 q 376 296 347 297 q 444 293 431 293 l 464 293 l 484 393 l 461 393 q 275 368 332 393 q 384 465 285 465 q 439 463 412 465 q 482 460 477 460 l 497 460 l 498 469 q 373 810 457 654 q 203 1017 290 965 q 311 1067 274 1067 q 616 534 441 1067 q 850 778 749 652 q 951 954 951 904 q 928 1003 951 982 q 1019 1029 986 1029 q 1075 970 1075 1029 q 941 749 1075 904 q 641 469 806 595 z "},"µ":{"ha":1116,"x_min":145,"x_max":1130,"o":"m 802 411 q 382 -17 569 -17 q 312 -2 342 -17 l 302 -50 q 286 -199 286 -133 q 304 -270 286 -241 q 198 -293 226 -293 q 145 -219 145 -293 q 165 -67 145 -170 l 267 444 q 299 669 299 599 q 275 732 299 708 q 388 753 356 753 q 439 677 439 753 q 397 423 439 633 l 386 368 q 359 205 359 243 q 427 102 359 102 q 688 339 532 102 q 861 703 861 598 q 853 739 861 718 q 948 753 913 753 q 1006 717 1006 753 q 965 543 1006 709 q 956 498 961 526 l 941 427 q 925 250 925 346 q 1013 87 925 87 q 1130 145 1057 87 q 1081 24 1122 60 q 953 -13 1040 -13 q 795 250 795 -13 q 802 411 795 335 z "},"∂":{"ha":937,"x_min":251,"x_max":862,"o":"m 281 878 q 564 1088 382 1088 q 783 963 705 1088 q 862 614 862 838 q 746 163 862 343 q 456 -17 630 -17 q 308 48 365 -17 q 251 219 251 114 q 369 542 251 394 q 626 690 486 690 q 791 620 713 690 q 719 873 791 776 q 528 971 646 971 q 281 878 391 971 m 790 526 q 629 618 722 618 q 455 511 532 618 q 378 267 378 403 q 503 79 378 79 q 694 207 612 79 q 790 526 777 336 z "},"∑":{"ha":916,"x_min":56,"x_max":1059,"o":"m 209 109 l 449 109 l 517 109 l 657 109 q 924 194 828 109 q 865 35 909 79 q 718 -8 821 -8 q 535 -3 665 -8 q 461 0 482 0 l 363 0 q 205 -7 292 0 q 122 -13 151 -13 q 56 27 56 -13 q 60 53 56 36 q 71 96 62 60 q 582 473 356 319 q 375 754 474 592 q 275 973 275 916 q 280 1020 275 990 q 532 1004 427 1004 l 642 1004 q 1059 1042 931 1004 q 987 936 1034 956 q 758 916 940 916 l 430 916 q 734 498 559 659 q 479 317 668 457 q 209 109 291 178 z "},"∏":{"ha":1138,"x_min":152,"x_max":1306,"o":"m 525 924 l 368 134 q 355 50 355 70 q 363 9 355 31 q 238 -25 294 -25 q 203 3 203 -25 q 216 88 203 18 l 382 924 l 373 924 q 152 867 250 924 q 229 980 182 957 q 429 1004 277 1004 l 1083 1004 q 1306 1061 1238 1004 q 1252 956 1295 987 q 1121 924 1209 924 l 1050 924 q 913 277 913 559 q 1031 67 913 67 q 1143 113 1086 67 q 1093 6 1133 37 q 966 -25 1053 -25 q 774 274 774 -25 q 910 924 774 566 l 525 924 z "},"π":{"ha":1131,"x_min":122,"x_max":1244,"o":"m 517 631 l 437 226 q 420 79 420 142 q 437 6 420 39 q 333 -17 369 -17 q 277 47 277 -17 q 300 209 277 96 l 384 631 l 361 631 q 122 530 224 631 q 184 702 133 667 q 425 736 235 736 l 1002 736 q 1244 776 1171 736 q 1185 656 1223 681 q 1021 631 1147 631 l 970 631 l 922 396 q 899 213 899 275 q 996 83 899 83 q 1118 143 1043 83 q 951 -17 1105 -17 q 811 41 862 -17 q 761 201 761 100 q 787 386 761 258 l 836 631 l 517 631 z "},"∫":{"ha":937,"x_min":227,"x_max":865,"o":"m 694 957 q 632 876 647 926 q 617 699 617 826 l 620 570 l 622 502 l 622 380 q 548 -33 622 132 q 361 -197 473 -197 q 269 -166 311 -197 q 227 -99 227 -136 q 264 -32 227 -64 q 394 -124 355 -60 q 472 -18 454 -86 q 491 231 491 50 l 490 328 l 488 392 l 490 511 q 553 898 490 767 q 740 1029 616 1029 q 826 1003 787 1029 q 865 943 865 976 q 833 881 865 913 q 694 957 740 897 z "},"ª":{"ha":903,"x_min":260,"x_max":911,"o":"m 654 749 q 382 490 519 490 q 260 651 260 490 q 366 911 260 794 q 602 1029 472 1029 q 726 988 674 1029 q 828 1025 769 1025 q 877 1020 850 1025 q 777 772 811 947 l 772 749 q 765 668 765 715 q 820 573 765 573 q 911 624 858 573 l 911 609 q 872 522 911 555 q 771 490 834 490 q 644 646 644 490 q 654 749 644 684 m 684 905 q 559 954 620 954 q 429 875 485 954 q 373 692 373 797 q 421 598 373 598 q 684 905 494 598 z "},"º":{"ha":903,"x_min":313,"x_max":854,"o":"m 511 943 q 678 1029 548 1029 q 807 987 760 1029 q 854 873 854 945 q 741 606 854 727 q 489 485 627 485 q 313 650 313 485 q 369 832 313 751 q 511 943 424 914 m 624 850 q 566 870 594 870 q 474 816 513 870 q 434 690 434 762 q 538 565 434 565 q 673 649 611 565 q 734 833 734 733 q 629 954 734 954 q 570 937 605 954 q 624 850 624 913 z "},"Ω":{"ha":1173,"x_min":39,"x_max":1194,"o":"m 505 -21 q 258 0 417 0 q 39 -36 137 0 q 117 85 73 56 q 271 113 161 113 q 409 104 332 113 q 195 458 195 290 q 389 852 195 676 q 825 1029 584 1029 q 1090 934 987 1029 q 1194 691 1194 840 q 825 109 1194 382 l 886 109 q 1082 122 1029 109 q 1175 184 1135 136 q 1108 37 1160 75 q 920 0 1057 0 l 849 0 q 749 -7 833 0 q 715 -8 728 -8 q 680 26 677 -8 q 684 56 680 38 q 686 75 684 62 q 948 377 855 217 q 1041 684 1041 537 q 966 883 1041 807 q 770 958 892 958 q 474 808 601 958 q 347 458 347 658 q 442 169 347 305 l 462 141 q 507 21 507 77 q 505 -21 507 7 z "},"æ":{"ha":1346,"x_min":168,"x_max":1714,"o":"m 703 290 q 326 -17 488 -17 q 211 47 254 -17 q 168 216 168 111 q 297 597 168 441 q 614 753 427 753 q 901 648 766 753 q 1145 753 1028 753 q 1261 715 1217 753 q 1305 617 1305 677 q 1171 386 1305 482 q 846 290 1036 290 q 844 254 844 270 q 891 133 844 182 q 1008 83 939 83 q 1330 216 1160 83 q 1655 588 1500 349 l 1714 557 q 1353 135 1555 288 q 950 -17 1150 -17 q 769 54 839 -17 q 700 239 700 125 q 703 290 700 256 m 817 575 q 581 673 707 673 q 382 553 460 673 q 304 245 304 432 q 396 117 304 117 q 817 575 507 117 m 847 348 q 1085 423 995 358 q 1175 583 1175 488 q 1148 644 1175 618 q 1086 669 1122 669 q 938 582 1003 669 q 847 348 872 494 z "},"ø":{"ha":931,"x_min":150,"x_max":1299,"o":"m 897 505 q 901 468 901 484 q 768 129 901 275 q 460 -17 636 -17 q 304 23 385 -17 q 232 -147 232 -69 q 233 -163 232 -153 q 150 -90 150 -132 q 224 42 150 -60 l 243 68 q 155 302 155 172 q 268 572 155 458 q 535 686 380 686 q 576 680 557 686 q 562 732 562 717 q 583 793 562 762 q 781 709 696 787 l 807 738 q 1027 895 946 895 q 1122 871 1066 895 q 855 690 995 822 l 827 665 q 858 624 844 648 q 1092 548 983 548 q 1265 602 1170 548 l 1299 545 q 1078 469 1196 469 q 897 505 992 469 m 319 165 q 671 597 481 387 q 648 612 659 603 q 589 619 611 619 q 384 515 475 619 q 293 281 293 412 q 319 165 293 228 m 753 557 q 734 565 743 561 q 363 106 576 405 q 489 58 421 58 q 687 172 603 58 q 771 440 771 286 q 753 557 771 500 z "},"¿":{"ha":770,"x_min":172,"x_max":707,"o":"m 511 471 q 567 486 534 486 q 650 414 650 486 q 504 197 650 317 l 473 172 q 309 -69 309 37 q 447 -197 309 -197 q 692 -32 588 -197 q 707 -85 707 -55 q 602 -225 707 -158 q 383 -293 497 -293 q 228 -242 284 -293 q 172 -103 172 -192 q 350 162 172 25 l 375 182 q 527 412 527 298 q 511 471 527 440 m 675 573 l 626 564 q 554 554 576 554 q 495 616 495 554 q 502 675 495 641 l 511 721 l 542 726 q 621 739 608 739 q 669 690 669 739 q 667 662 669 676 l 663 645 q 661 619 661 633 q 675 573 661 592 z "},"¡":{"ha":533,"x_min":279,"x_max":562,"o":"m 380 463 q 416 471 390 465 q 439 473 426 473 q 496 419 496 473 q 484 329 496 389 l 471 261 q 422 -196 422 12 q 427 -243 422 -218 q 346 -268 367 -268 q 279 -195 279 -268 q 333 92 279 -131 q 370 260 357 195 l 380 307 q 390 405 390 359 q 380 463 390 435 m 562 573 l 514 564 q 441 554 464 554 q 383 616 383 554 q 390 675 383 640 l 399 721 l 430 726 q 509 739 496 739 q 557 689 557 739 q 555 662 557 675 l 551 645 q 549 618 549 633 q 562 573 549 592 z "},"¬":{"ha":937,"x_min":210,"x_max":921,"o":"m 214 605 q 501 573 298 573 l 640 573 q 871 550 821 573 q 921 443 921 527 q 770 231 921 231 l 755 231 q 802 383 802 294 q 760 453 802 437 q 581 469 719 469 l 461 469 q 253 485 296 469 q 210 560 210 500 q 214 605 210 577 z "},"√":{"ha":1000,"x_min":159,"x_max":1252,"o":"m 224 98 l 159 125 q 332 347 240 343 q 459 228 389 350 q 578 -80 530 105 q 1171 1096 763 364 l 1252 1096 q 694 13 797 252 l 656 -75 q 598 -178 621 -159 q 490 -218 576 -197 q 418 54 490 -120 q 304 230 345 228 q 224 98 263 232 z "},"ƒ":{"ha":937,"x_min":228,"x_max":1022,"o":"m 468 502 l 393 502 q 228 471 288 502 q 267 551 240 532 q 369 570 294 570 l 420 569 l 481 569 l 488 604 q 635 917 527 800 q 886 1034 743 1034 q 983 1003 943 1034 q 1022 928 1022 972 q 928 846 1022 881 q 892 831 916 841 q 901 871 901 854 q 822 954 901 954 q 634 664 692 954 l 615 569 l 686 569 q 840 594 792 569 q 794 518 824 534 q 665 502 764 502 l 602 502 l 507 25 q 490 -123 490 -60 q 508 -195 490 -162 q 404 -218 440 -218 q 348 -154 348 -218 q 370 8 348 -104 l 468 502 z "},"≈":{"ha":937,"x_min":151,"x_max":939,"o":"m 273 435 q 208 515 208 454 q 266 624 208 575 q 393 673 323 673 q 553 614 449 673 l 606 584 q 762 523 715 523 q 874 662 874 523 q 939 578 939 637 q 879 467 939 516 q 744 418 820 418 q 556 486 673 418 l 490 523 q 374 569 410 569 q 302 535 332 569 q 272 454 272 501 q 273 435 272 448 m 216 150 q 151 231 151 169 q 209 340 151 290 q 337 389 267 389 q 496 330 392 389 l 550 300 q 705 239 659 239 q 817 377 817 239 q 882 294 882 353 q 823 183 882 232 q 688 134 764 134 q 500 201 616 134 l 434 239 q 317 284 353 284 q 245 251 275 284 q 216 170 216 217 q 216 150 216 163 z "},"∆":{"ha":1068,"x_min":24,"x_max":1083,"o":"m 24 56 l 633 904 q 658 1009 637 983 q 755 1065 678 1036 q 1029 124 755 583 q 1065 132 1046 125 q 1083 138 1071 134 q 897 -8 1005 -8 l 712 -1 l 654 0 l 563 0 q 195 -25 437 0 l 161 -28 q 98 -33 114 -33 q 51 -20 62 -33 q 24 56 39 -6 m 166 86 q 524 109 311 109 l 663 109 l 747 109 l 852 107 q 889 109 859 107 q 744 417 812 222 q 648 795 675 612 l 166 86 z "},"«":{"ha":1080,"x_min":344,"x_max":1095,"o":"m 344 380 q 675 686 590 515 q 688 677 684 680 q 718 631 718 656 q 483 347 718 558 q 567 220 511 271 q 677 170 623 170 l 686 170 q 604 125 644 125 q 344 380 472 125 m 721 380 q 1053 686 966 514 q 1065 677 1061 680 q 1095 631 1095 656 q 860 347 1095 558 q 944 220 888 271 q 1054 170 1000 170 l 1063 170 q 981 125 1021 125 q 721 380 849 125 z "},"»":{"ha":1080,"x_min":342,"x_max":1109,"o":"m 1109 363 q 760 46 851 231 q 720 115 720 78 q 944 373 720 198 q 808 597 808 503 q 836 653 808 627 q 1109 363 916 479 m 732 363 q 383 46 475 231 q 342 115 342 78 q 567 373 342 198 q 431 597 431 503 q 459 653 431 627 q 732 363 539 479 z "},"…":{"ha":1389,"x_min":170,"x_max":1240,"o":"m 170 126 q 257 140 221 140 q 313 87 313 140 q 300 13 313 69 q 225 0 250 0 q 176 45 176 0 l 176 56 l 177 79 l 178 84 q 170 126 178 109 m 633 126 q 721 140 685 140 q 777 87 777 140 q 764 13 777 69 q 689 0 713 0 q 639 45 639 0 q 640 56 639 51 l 641 79 l 641 84 q 633 126 641 109 m 1097 126 q 1183 140 1148 140 q 1240 87 1240 140 q 1227 13 1240 70 q 1152 0 1177 0 q 1102 45 1102 0 q 1103 56 1102 50 l 1104 79 l 1104 84 q 1097 126 1104 109 z "}," ":{"ha":937,"x_min":0,"x_max":0,"o":""},"À":{"ha":1058,"x_min":49,"x_max":1053,"o":"m 368 334 l 354 308 q 269 61 269 149 q 288 11 269 35 q 215 -16 272 5 q 165 -25 189 -25 q 117 20 117 -25 q 235 308 117 115 l 256 342 l 221 342 q 49 308 110 342 q 220 422 81 422 l 304 420 l 323 448 q 648 878 429 608 q 759 992 722 970 q 901 1033 795 1015 q 881 806 881 911 q 945 241 881 527 q 1053 38 981 83 q 944 -25 989 -25 q 779 342 837 -25 q 553 330 667 330 l 368 334 m 416 414 l 553 410 q 768 420 694 410 q 737 814 737 658 l 738 865 q 637 742 715 837 q 431 440 496 569 l 416 414 m 931 1088 q 908 1086 916 1086 q 749 1170 828 1086 q 680 1267 681 1242 q 792 1332 677 1304 q 931 1088 833 1186 z "},"Ã":{"ha":1058,"x_min":49,"x_max":1055,"o":"m 368 334 l 354 308 q 269 61 269 149 q 288 11 269 35 q 215 -16 272 5 q 165 -25 189 -25 q 117 20 117 -25 q 235 308 117 115 l 256 342 l 221 342 q 49 308 110 342 q 220 422 81 422 l 304 420 l 323 448 q 648 878 429 608 q 759 992 722 970 q 901 1033 795 1015 q 881 806 881 911 q 945 241 881 527 q 1053 38 981 83 q 944 -25 989 -25 q 779 342 837 -25 q 553 330 667 330 l 368 334 m 416 414 l 553 410 q 768 420 694 410 q 737 814 737 658 l 738 865 q 637 742 715 837 q 431 440 496 569 l 416 414 m 696 1080 q 635 1135 635 1098 q 680 1211 635 1175 q 774 1246 724 1246 q 854 1223 816 1246 l 874 1211 q 936 1188 911 1188 q 997 1261 990 1188 q 1055 1205 1055 1245 q 1010 1125 1055 1163 q 917 1088 966 1088 q 825 1123 885 1088 l 798 1139 q 745 1155 771 1155 q 696 1093 696 1155 l 696 1080 z "},"Õ":{"ha":1200,"x_min":165,"x_max":1240,"o":"m 624 888 q 901 1029 729 1029 q 1144 922 1048 1029 q 1240 651 1240 815 q 1034 185 1240 395 q 579 -25 829 -25 q 282 94 399 -25 q 165 395 165 213 q 299 736 165 593 q 624 888 432 880 m 572 814 q 382 685 452 785 q 312 438 312 585 q 407 169 312 275 q 649 62 502 62 q 960 229 825 62 q 1095 615 1095 396 q 1028 829 1095 743 q 863 916 961 916 q 690 835 763 916 q 616 643 616 754 q 654 498 616 564 q 555 538 580 511 q 530 631 530 564 q 572 814 530 719 m 681 1080 q 621 1135 621 1098 q 665 1211 621 1175 q 759 1246 709 1246 q 840 1223 801 1246 l 859 1211 q 921 1188 896 1188 q 982 1261 975 1188 q 1040 1205 1040 1245 q 996 1125 1040 1163 q 902 1088 951 1088 q 810 1123 870 1088 l 783 1139 q 730 1155 756 1155 q 681 1093 681 1155 l 681 1080 z "},"Œ":{"ha":1459,"x_min":155,"x_max":1615,"o":"m 845 83 q 538 -25 701 -25 q 263 94 371 -25 q 155 399 155 213 q 345 856 155 658 q 784 1055 535 1055 q 1013 1004 913 1055 l 1308 1004 q 1615 1040 1470 1004 q 1525 940 1570 960 q 1343 920 1479 920 l 1120 920 l 1055 590 l 1196 590 q 1430 627 1335 590 q 1345 517 1377 533 q 1179 502 1313 502 l 1037 502 l 1004 336 q 986 199 986 245 q 1171 83 986 83 q 1459 144 1326 83 q 1383 23 1434 48 q 1251 -9 1352 7 q 1082 -25 1149 -25 q 845 83 903 -25 m 972 887 q 728 975 855 975 q 425 823 551 975 q 298 458 298 671 q 381 166 298 281 q 593 50 465 50 q 829 170 715 50 l 895 502 l 874 502 q 660 442 745 502 q 728 561 682 532 q 899 590 774 590 l 912 590 l 972 887 z "},"œ":{"ha":1318,"x_min":156,"x_max":1687,"o":"m 720 83 q 465 -17 598 -17 q 241 70 327 -17 q 156 298 156 157 q 280 584 156 465 q 580 703 405 703 q 825 606 733 703 q 1118 753 966 753 q 1234 714 1189 753 q 1280 616 1280 676 q 1143 387 1280 484 q 818 290 1006 290 q 817 256 817 268 q 864 133 817 183 q 981 83 911 83 q 1311 224 1131 83 q 1628 590 1490 364 l 1687 557 q 1328 137 1532 291 q 925 -17 1123 -17 q 720 83 799 -17 m 764 537 q 608 636 721 636 q 393 526 490 636 q 296 281 296 416 q 351 121 296 183 q 492 58 406 58 q 680 161 597 58 q 671 229 671 195 q 764 537 671 391 m 819 349 q 1056 423 966 359 q 1145 583 1145 488 q 1119 644 1145 618 q 1057 669 1093 669 q 909 582 975 669 q 819 349 844 494 z "},"–":{"ha":694,"x_min":314,"x_max":842,"o":"m 314 322 q 374 448 338 427 q 568 469 410 469 l 578 469 q 842 513 780 469 q 784 391 827 413 q 569 368 741 368 l 563 368 q 314 322 400 368 z "},"—":{"ha":1389,"x_min":332,"x_max":1517,"o":"m 332 322 q 391 448 355 427 q 586 469 427 469 l 1254 469 q 1517 513 1455 469 q 1459 391 1501 413 q 1244 368 1417 368 l 581 368 q 332 322 418 368 z "},"“":{"ha":708,"x_min":210,"x_max":813,"o":"m 501 1116 q 464 1121 479 1121 q 382 1080 416 1121 q 348 981 348 1040 q 432 839 348 897 q 304 791 361 791 q 210 899 210 791 q 284 1096 210 1004 q 445 1188 359 1188 q 501 1116 492 1188 m 813 1116 q 776 1121 791 1121 q 694 1080 728 1121 q 660 981 660 1040 q 744 839 660 897 q 616 791 673 791 q 522 899 522 791 q 596 1096 522 1004 q 756 1188 671 1188 q 813 1116 804 1188 z "},"”":{"ha":708,"x_min":205,"x_max":808,"o":"m 517 863 q 553 858 538 858 q 636 899 602 858 q 670 998 670 939 q 586 1139 670 1082 q 714 1188 656 1188 q 808 1080 808 1188 q 733 883 808 975 q 574 791 659 791 q 517 863 526 791 m 205 863 q 242 858 227 858 q 324 899 290 858 q 358 997 358 939 q 274 1139 358 1082 q 402 1188 345 1188 q 496 1080 496 1188 q 421 883 496 975 q 262 791 347 791 q 205 863 214 791 z "},"‘":{"ha":396,"x_min":210,"x_max":501,"o":"m 501 1116 q 464 1121 479 1121 q 382 1080 416 1121 q 348 981 348 1040 q 432 839 348 897 q 304 791 361 791 q 210 899 210 791 q 284 1096 210 1004 q 445 1188 359 1188 q 501 1116 492 1188 z "},"’":{"ha":396,"x_min":201,"x_max":492,"o":"m 201 863 q 238 858 222 858 q 320 899 286 858 q 354 997 354 939 q 270 1139 354 1082 q 398 1188 341 1188 q 492 1080 492 1188 q 417 883 492 975 q 258 791 342 791 q 201 863 210 791 z "},"÷":{"ha":937,"x_min":162,"x_max":936,"o":"m 538 753 l 586 762 q 658 772 635 772 q 717 709 717 772 q 710 651 717 685 l 701 606 l 670 600 q 591 587 604 587 q 543 637 543 587 q 545 664 543 651 l 549 682 q 551 706 551 693 q 538 753 551 734 m 162 309 q 229 435 178 404 q 414 456 262 456 l 672 456 q 936 501 874 456 q 880 382 918 409 q 732 355 843 355 l 409 355 q 162 309 247 355 m 429 205 l 477 214 q 549 224 528 224 q 608 162 608 224 q 601 103 608 138 l 592 58 l 561 52 q 481 39 495 39 q 433 90 433 39 q 436 116 433 103 l 439 134 q 442 158 442 145 q 429 205 442 186 z "},"◊":{"ha":937,"x_min":199,"x_max":918,"o":"m 670 751 q 687 698 687 718 q 659 642 687 668 q 918 355 786 524 q 501 -1 653 171 q 361 144 435 60 q 264 256 310 204 q 199 359 199 330 q 368 553 199 412 q 670 751 536 694 m 578 581 q 410 450 487 520 q 332 357 332 380 q 503 144 332 326 q 772 374 655 296 q 742 408 752 397 q 614 545 671 490 q 578 581 602 557 z "},"ÿ":{"ha":799,"x_min":-24,"x_max":928,"o":"m 465 4 q 361 364 435 186 q 201 635 287 542 q 304 677 251 677 q 379 636 349 677 q 455 471 410 595 q 562 119 526 277 q 810 753 791 481 q 928 673 928 735 q 822 406 928 608 q 591 34 715 203 q 309 -273 449 -161 q 67 -385 168 -385 q -24 -309 -24 -385 q -7 -235 -24 -277 q 85 -258 30 -258 q 465 4 283 -258 m 403 988 l 418 988 q 519 951 519 988 q 507 870 519 921 q 460 871 482 871 q 403 921 403 871 l 405 945 q 406 966 406 956 q 403 988 406 977 m 671 987 l 686 987 q 787 950 787 987 q 774 869 787 921 q 728 871 753 871 q 671 920 671 871 l 673 945 q 674 964 674 954 q 671 987 674 977 z "},"Ÿ":{"ha":811,"x_min":106,"x_max":979,"o":"m 545 469 l 478 134 q 465 50 465 70 q 473 9 465 31 q 349 -25 404 -25 q 313 3 313 -25 q 327 88 313 18 l 402 469 q 277 810 361 654 q 106 1017 193 965 q 214 1067 178 1067 q 519 534 345 1067 q 754 778 653 652 q 854 954 854 904 q 832 1003 854 982 q 923 1029 890 1029 q 979 970 979 1029 q 844 749 979 904 q 545 469 710 595 m 410 1206 l 426 1206 q 526 1168 526 1206 q 514 1088 526 1139 q 468 1089 490 1089 q 410 1139 410 1089 l 412 1163 q 414 1183 414 1173 q 410 1206 414 1195 m 679 1205 l 694 1205 q 794 1168 794 1205 q 782 1087 794 1139 q 736 1088 760 1088 q 678 1137 678 1088 l 681 1162 q 682 1182 682 1171 q 679 1205 682 1194 z "},"∕":{"ha":119,"x_min":-283,"x_max":829,"o":"m -202 -140 q -283 -38 -283 -99 q 69 475 -283 64 l 144 562 q 525 972 353 808 q 738 1084 642 1084 q 829 1065 777 1084 q 277 564 587 932 l 230 509 q -85 103 18 256 q -202 -140 -187 -50 z "},"€":{"ha":937,"x_min":60,"x_max":978,"o":"m 311 400 l 311 396 q 379 161 311 247 q 564 75 446 75 q 752 134 654 75 q 924 296 850 193 q 936 245 936 264 q 805 72 936 168 q 511 -25 673 -25 q 250 77 344 -25 q 155 361 155 179 l 157 396 l 157 400 q 60 376 111 400 q 97 446 75 427 q 164 467 120 466 l 164 471 q 178 536 168 498 q 119 531 139 535 q 66 513 98 527 q 111 587 85 570 q 195 604 136 604 l 199 604 q 417 914 264 799 q 747 1029 570 1029 q 911 992 845 1029 q 978 903 978 955 q 917 790 978 855 q 819 926 870 889 q 699 962 768 962 q 635 954 667 962 q 573 928 604 945 q 513 887 542 911 q 458 832 484 863 q 410 765 432 802 q 371 689 388 729 l 340 604 l 558 604 q 764 633 707 604 q 608 536 740 536 l 323 536 l 323 532 l 314 468 l 541 468 q 636 473 596 468 q 725 497 677 477 q 697 426 707 439 q 659 406 686 412 q 576 400 632 400 l 311 400 z "},"‹":{"ha":703,"x_min":344,"x_max":718,"o":"m 344 380 q 675 686 590 515 q 688 677 684 680 q 718 631 718 656 q 483 347 718 558 q 567 220 511 271 q 677 170 623 170 l 686 170 q 604 125 644 125 q 344 380 472 125 z "},"›":{"ha":703,"x_min":342,"x_max":732,"o":"m 732 363 q 383 46 475 231 q 342 115 342 78 q 567 373 342 198 q 431 597 431 503 q 459 653 431 627 q 732 363 539 479 z "},"":{"ha":1122,"x_min":92,"x_max":1490,"o":"m 282 540 l 269 540 q 92 490 168 540 q 140 600 109 576 q 273 623 172 623 l 298 623 l 321 736 q 466 1063 366 964 q 739 1188 590 1188 q 840 1161 798 1188 q 882 1096 882 1134 q 793 1006 882 1057 q 682 1109 769 1109 q 463 774 529 1109 l 433 623 l 723 623 q 952 647 814 623 q 887 423 920 565 q 855 220 855 281 q 941 87 855 87 q 1415 564 1093 87 q 1432 589 1418 568 l 1490 561 q 1189 146 1351 309 q 916 -17 1027 -17 q 774 45 828 -17 q 721 210 721 108 q 785 540 721 347 l 415 540 l 298 -50 q 282 -198 282 -135 q 299 -270 282 -237 q 195 -293 231 -293 q 139 -229 139 -293 q 161 -67 139 -180 l 282 540 m 903 928 l 912 928 q 1043 973 958 930 q 1177 1062 1128 1017 q 1070 905 1147 968 q 914 810 955 810 q 888 843 888 810 q 903 928 888 890 z "},"":{"ha":1117,"x_min":90,"x_max":1485,"o":"m 280 540 l 267 540 q 90 490 165 540 q 138 600 106 576 q 271 623 170 623 l 296 623 l 311 696 q 382 918 339 838 q 512 1069 426 999 q 826 1188 656 1188 q 990 1159 922 1188 q 1058 1088 1058 1130 q 1019 1017 1058 1049 l 891 372 q 873 220 873 280 q 960 104 873 104 q 1428 585 1120 104 l 1485 554 q 1183 140 1337 292 q 914 -13 1029 -13 q 736 211 736 -13 q 755 363 736 268 l 893 1056 q 756 1105 851 1105 q 465 798 526 1105 l 431 623 l 470 623 q 704 653 616 623 q 641 559 680 578 q 477 540 603 540 l 414 540 l 296 -50 q 280 -198 280 -134 q 297 -270 280 -237 q 193 -293 229 -293 q 137 -229 137 -293 q 159 -67 137 -180 l 280 540 z "},"‡":{"ha":937,"x_min":154,"x_max":937,"o":"m 549 158 l 540 98 q 517 -102 517 -43 q 540 -200 517 -165 q 517 -201 526 -201 q 405 -105 405 -201 q 430 62 405 -61 q 440 113 434 83 l 449 158 l 416 159 q 154 135 263 159 q 214 214 182 194 q 312 235 246 235 q 463 228 366 235 l 530 566 q 450 561 490 563 q 254 518 323 553 q 310 616 278 591 q 414 640 341 640 l 475 638 l 544 636 l 552 675 q 589 943 589 863 q 564 1027 589 995 q 705 937 705 1020 q 699 886 705 916 q 679 796 688 842 q 661 710 666 732 q 649 659 650 665 l 644 636 l 669 635 q 937 675 865 635 q 812 561 908 561 l 675 564 l 631 566 l 563 228 q 833 284 745 228 q 654 155 833 155 l 549 158 z "},"∙":{"ha":937,"x_min":456,"x_max":635,"o":"m 456 477 l 505 486 q 577 496 555 496 q 635 434 635 496 q 629 375 635 410 l 620 330 l 589 323 q 509 311 523 311 q 461 361 461 311 q 464 388 461 375 l 467 406 q 470 430 470 417 q 456 477 470 458 z "},"‚":{"ha":484,"x_min":131,"x_max":422,"o":"m 131 -142 q 168 -146 153 -146 q 250 -105 216 -146 q 284 -7 284 -64 q 200 136 284 78 q 328 184 271 184 q 422 75 422 184 q 348 -121 422 -29 q 188 -214 273 -214 q 131 -142 140 -214 z "},"„":{"ha":795,"x_min":131,"x_max":734,"o":"m 443 -142 q 480 -146 465 -146 q 562 -105 528 -146 q 596 -7 596 -64 q 512 136 596 78 q 640 184 583 184 q 734 75 734 184 q 660 -121 734 -29 q 499 -214 585 -214 q 443 -142 452 -214 m 131 -142 q 168 -146 153 -146 q 250 -105 216 -146 q 284 -7 284 -64 q 200 136 284 78 q 328 184 271 184 q 422 75 422 184 q 348 -121 422 -29 q 188 -214 273 -214 q 131 -142 140 -214 z "},"‰":{"ha":1607,"x_min":212,"x_max":1651,"o":"m 308 -136 q 232 -37 232 -99 q 517 374 232 47 q 966 871 848 754 q 733 812 848 812 q 671 816 711 812 q 672 799 672 804 q 596 585 672 672 q 408 498 519 498 q 268 549 323 498 q 212 680 212 601 q 268 846 212 767 q 386 924 324 924 q 437 889 418 924 q 344 809 380 866 q 309 684 309 753 q 341 599 309 633 q 423 565 374 565 q 532 625 490 565 q 575 779 575 686 q 570 827 575 800 q 471 911 471 867 q 528 999 471 947 q 758 895 591 895 q 1077 999 947 895 l 1092 1011 q 1147 1042 1130 1042 q 1198 1006 1173 1042 q 695 456 1028 862 q 408 82 489 205 q 308 -136 328 -41 m 937 456 q 997 490 964 490 q 1093 422 1048 490 q 1139 280 1139 355 q 1060 83 1139 167 q 873 0 981 0 q 739 55 792 0 q 686 196 686 111 q 753 371 686 302 q 937 456 820 441 m 975 399 q 948 401 958 401 q 833 340 884 401 q 783 202 783 279 q 893 71 783 71 q 999 123 955 71 q 1043 249 1043 175 q 975 399 1043 340 m 1449 456 q 1510 490 1476 490 q 1606 422 1560 490 q 1651 280 1651 355 q 1573 83 1651 167 q 1387 0 1494 0 q 1252 55 1305 0 q 1199 196 1199 110 q 1266 371 1199 302 q 1449 456 1333 441 m 1489 399 q 1461 401 1470 401 q 1346 340 1396 401 q 1295 202 1295 279 q 1406 71 1295 71 q 1512 123 1468 71 q 1556 249 1556 175 q 1489 399 1556 340 z "},"Â":{"ha":1058,"x_min":49,"x_max":1053,"o":"m 368 334 l 354 308 q 269 61 269 149 q 288 11 269 35 q 215 -16 272 5 q 165 -25 189 -25 q 117 20 117 -25 q 235 308 117 115 l 256 342 l 221 342 q 49 308 110 342 q 220 422 81 422 l 304 420 l 323 448 q 648 878 429 608 q 759 992 722 970 q 901 1033 795 1015 q 881 806 881 911 q 945 241 881 527 q 1053 38 981 83 q 944 -25 989 -25 q 779 342 837 -25 q 553 330 667 330 l 368 334 m 416 414 l 553 410 q 768 420 694 410 q 737 814 737 658 l 738 865 q 637 742 715 837 q 431 440 496 569 l 416 414 m 844 1213 q 621 1088 707 1088 q 568 1097 600 1088 q 731 1213 686 1176 l 755 1233 q 931 1306 823 1290 q 1023 1088 954 1171 q 922 1110 953 1088 q 844 1213 890 1132 z "},"Ê":{"ha":861,"x_min":125,"x_max":1015,"o":"m 437 502 l 402 328 q 380 174 380 219 q 555 83 380 83 q 861 145 729 83 q 760 20 831 43 q 612 -10 718 5 q 449 -25 506 -25 q 227 122 227 -25 q 249 273 227 161 l 294 502 l 284 502 q 151 472 216 502 q 213 566 189 545 q 289 586 237 586 l 311 586 l 378 920 l 358 920 q 125 840 233 920 q 218 980 159 949 q 503 1004 264 1004 l 705 1004 q 1015 1042 896 1004 q 920 939 962 957 q 739 920 878 920 l 520 920 l 453 586 l 593 586 q 828 623 741 586 q 746 519 782 537 q 577 502 710 502 l 437 502 m 705 1213 q 481 1088 568 1088 q 429 1097 460 1088 q 591 1213 546 1176 l 615 1233 q 791 1306 684 1290 q 883 1088 814 1171 q 782 1110 813 1088 q 705 1213 751 1132 z "},"Á":{"ha":1058,"x_min":49,"x_max":1065,"o":"m 368 334 l 354 308 q 269 61 269 149 q 288 11 269 35 q 215 -16 272 5 q 165 -25 189 -25 q 117 20 117 -25 q 235 308 117 115 l 256 342 l 221 342 q 49 308 110 342 q 220 422 81 422 l 304 420 l 323 448 q 648 878 429 608 q 759 992 722 970 q 901 1033 795 1015 q 881 806 881 911 q 945 241 881 527 q 1053 38 981 83 q 944 -25 989 -25 q 779 342 837 -25 q 553 330 667 330 l 368 334 m 416 414 l 553 410 q 768 420 694 410 q 737 814 737 658 l 738 865 q 637 742 715 837 q 431 440 496 569 l 416 414 m 708 1088 q 764 1144 741 1116 l 796 1183 q 889 1271 852 1249 q 981 1293 925 1293 q 1065 1284 1029 1293 q 943 1200 1010 1259 l 916 1177 q 708 1088 812 1088 z "},"Ë":{"ha":861,"x_min":125,"x_max":1015,"o":"m 437 502 l 402 328 q 380 174 380 219 q 555 83 380 83 q 861 145 729 83 q 760 20 831 43 q 612 -10 718 5 q 449 -25 506 -25 q 227 122 227 -25 q 249 273 227 161 l 294 502 l 284 502 q 151 472 216 502 q 213 566 189 545 q 289 586 237 586 l 311 586 l 378 920 l 358 920 q 125 840 233 920 q 218 980 159 949 q 503 1004 264 1004 l 705 1004 q 1015 1042 896 1004 q 920 939 962 957 q 739 920 878 920 l 520 920 l 453 586 l 593 586 q 828 623 741 586 q 746 519 782 537 q 577 502 710 502 l 437 502 m 463 1206 l 479 1206 q 579 1168 579 1206 q 567 1088 579 1139 q 521 1089 543 1089 q 463 1139 463 1089 l 465 1163 q 467 1183 467 1173 q 463 1206 467 1195 m 732 1205 l 747 1205 q 847 1168 847 1205 q 835 1087 847 1139 q 789 1088 813 1088 q 731 1137 731 1088 l 734 1162 q 734 1182 734 1171 q 732 1205 734 1194 z "},"È":{"ha":861,"x_min":125,"x_max":1015,"o":"m 437 502 l 402 328 q 380 174 380 219 q 555 83 380 83 q 861 145 729 83 q 760 20 831 43 q 612 -10 718 5 q 449 -25 506 -25 q 227 122 227 -25 q 249 273 227 161 l 294 502 l 284 502 q 151 472 216 502 q 213 566 189 545 q 289 586 237 586 l 311 586 l 378 920 l 358 920 q 125 840 233 920 q 218 980 159 949 q 503 1004 264 1004 l 705 1004 q 1015 1042 896 1004 q 920 939 962 957 q 739 920 878 920 l 520 920 l 453 586 l 593 586 q 828 623 741 586 q 746 519 782 537 q 577 502 710 502 l 437 502 m 774 1088 q 751 1086 760 1086 q 592 1170 671 1086 q 523 1267 524 1242 q 635 1332 521 1304 q 774 1088 677 1186 z "},"Í":{"ha":758,"x_min":116,"x_max":852,"o":"m 625 932 l 458 89 q 642 106 587 106 q 730 -17 730 106 q 625 0 680 0 q 496 -10 572 0 l 341 -31 q 225 -42 258 -42 q 144 -15 168 -42 q 116 84 121 12 q 216 58 164 58 q 311 68 245 58 l 479 911 q 353 899 406 899 q 259 1009 259 899 q 326 991 286 991 q 468 1009 374 991 l 575 1029 q 746 1050 687 1050 q 852 927 838 1050 q 772 945 814 945 q 655 936 720 945 q 625 932 645 934 m 449 1088 q 505 1144 481 1116 l 537 1183 q 630 1271 593 1249 q 722 1293 666 1293 q 806 1284 770 1293 q 684 1200 751 1259 l 656 1177 q 449 1088 553 1088 z "},"Î":{"ha":758,"x_min":116,"x_max":852,"o":"m 625 932 l 458 89 q 642 106 587 106 q 730 -17 730 106 q 625 0 680 0 q 496 -10 572 0 l 341 -31 q 225 -42 258 -42 q 144 -15 168 -42 q 116 84 121 12 q 216 58 164 58 q 311 68 245 58 l 479 911 q 353 899 406 899 q 259 1009 259 899 q 326 991 286 991 q 468 1009 374 991 l 575 1029 q 746 1050 687 1050 q 852 927 838 1050 q 772 945 814 945 q 655 936 720 945 q 625 932 645 934 m 602 1213 q 378 1088 465 1088 q 326 1097 357 1088 q 488 1213 443 1176 l 512 1233 q 688 1306 581 1290 q 780 1088 711 1171 q 679 1110 710 1088 q 602 1213 648 1132 z "},"Ï":{"ha":758,"x_min":116,"x_max":852,"o":"m 625 932 l 458 89 q 642 106 587 106 q 730 -17 730 106 q 625 0 680 0 q 496 -10 572 0 l 341 -31 q 225 -42 258 -42 q 144 -15 168 -42 q 116 84 121 12 q 216 58 164 58 q 311 68 245 58 l 479 911 q 353 899 406 899 q 259 1009 259 899 q 326 991 286 991 q 468 1009 374 991 l 575 1029 q 746 1050 687 1050 q 852 927 838 1050 q 772 945 814 945 q 655 936 720 945 q 625 932 645 934 m 377 1206 l 393 1206 q 493 1168 493 1206 q 481 1088 493 1139 q 435 1089 456 1089 q 377 1139 377 1089 l 379 1163 q 380 1183 380 1173 q 377 1206 380 1195 m 646 1205 l 661 1205 q 761 1168 761 1205 q 749 1087 761 1139 q 703 1088 727 1088 q 645 1137 645 1088 l 648 1162 q 648 1182 648 1171 q 646 1205 648 1194 z "},"Ì":{"ha":758,"x_min":116,"x_max":852,"o":"m 625 932 l 458 89 q 642 106 587 106 q 730 -17 730 106 q 625 0 680 0 q 496 -10 572 0 l 341 -31 q 225 -42 258 -42 q 144 -15 168 -42 q 116 84 121 12 q 216 58 164 58 q 311 68 245 58 l 479 911 q 353 899 406 899 q 259 1009 259 899 q 326 991 286 991 q 468 1009 374 991 l 575 1029 q 746 1050 687 1050 q 852 927 838 1050 q 772 945 814 945 q 655 936 720 945 q 625 932 645 934 m 654 1088 q 631 1086 640 1086 q 472 1170 551 1086 q 403 1267 404 1242 q 515 1332 401 1304 q 654 1088 557 1186 z "},"Ó":{"ha":1200,"x_min":165,"x_max":1240,"o":"m 624 888 q 901 1029 729 1029 q 1144 922 1048 1029 q 1240 651 1240 815 q 1034 185 1240 395 q 579 -25 829 -25 q 282 94 399 -25 q 165 395 165 213 q 299 736 165 593 q 624 888 432 880 m 572 814 q 382 685 452 785 q 312 438 312 585 q 407 169 312 275 q 649 62 502 62 q 960 229 825 62 q 1095 615 1095 396 q 1028 829 1095 743 q 863 916 961 916 q 690 835 763 916 q 616 643 616 754 q 654 498 616 564 q 555 538 580 511 q 530 631 530 564 q 572 814 530 719 m 701 1088 q 758 1144 734 1116 l 789 1183 q 882 1271 846 1249 q 974 1293 918 1293 q 1059 1284 1022 1293 q 937 1200 1004 1259 l 909 1177 q 701 1088 805 1088 z "},"Ô":{"ha":1200,"x_min":165,"x_max":1240,"o":"m 624 888 q 901 1029 729 1029 q 1144 922 1048 1029 q 1240 651 1240 815 q 1034 185 1240 395 q 579 -25 829 -25 q 282 94 399 -25 q 165 395 165 213 q 299 736 165 593 q 624 888 432 880 m 572 814 q 382 685 452 785 q 312 438 312 585 q 407 169 312 275 q 649 62 502 62 q 960 229 825 62 q 1095 615 1095 396 q 1028 829 1095 743 q 863 916 961 916 q 690 835 763 916 q 616 643 616 754 q 654 498 616 564 q 555 538 580 511 q 530 631 530 564 q 572 814 530 719 m 862 1213 q 639 1088 725 1088 q 586 1097 618 1088 q 749 1213 703 1176 l 772 1233 q 949 1306 841 1290 q 1040 1088 971 1171 q 939 1110 970 1088 q 862 1213 908 1132 z "},"Ò":{"ha":1200,"x_min":165,"x_max":1240,"o":"m 624 888 q 901 1029 729 1029 q 1144 922 1048 1029 q 1240 651 1240 815 q 1034 185 1240 395 q 579 -25 829 -25 q 282 94 399 -25 q 165 395 165 213 q 299 736 165 593 q 624 888 432 880 m 572 814 q 382 685 452 785 q 312 438 312 585 q 407 169 312 275 q 649 62 502 62 q 960 229 825 62 q 1095 615 1095 396 q 1028 829 1095 743 q 863 916 961 916 q 690 835 763 916 q 616 643 616 754 q 654 498 616 564 q 555 538 580 511 q 530 631 530 564 q 572 814 530 719 m 916 1088 q 892 1086 901 1086 q 733 1170 812 1086 q 664 1267 665 1242 q 777 1332 662 1304 q 916 1088 818 1186 z "},"Ú":{"ha":1182,"x_min":154,"x_max":1204,"o":"m 852 302 q 452 8 648 8 q 276 86 345 8 q 207 283 207 163 q 393 918 207 522 q 288 907 336 907 q 195 939 225 907 q 154 1048 165 970 q 286 1008 205 1008 q 593 1032 332 1008 q 354 318 354 564 q 398 174 354 230 q 510 117 441 117 q 701 212 606 117 q 879 486 795 307 q 985 892 939 817 q 1173 968 1031 968 q 1050 637 1111 889 q 990 207 990 385 q 1076 66 990 66 q 1202 124 1129 66 q 1204 100 1204 108 q 1149 14 1204 54 q 1028 -25 1093 -25 q 846 207 846 -25 q 852 302 846 239 m 728 1088 q 784 1144 760 1116 l 816 1183 q 908 1271 872 1249 q 1000 1293 945 1293 q 1085 1284 1048 1293 q 963 1200 1030 1259 l 935 1177 q 728 1088 831 1088 z "},"Û":{"ha":1182,"x_min":154,"x_max":1204,"o":"m 852 302 q 452 8 648 8 q 276 86 345 8 q 207 283 207 163 q 393 918 207 522 q 288 907 336 907 q 195 939 225 907 q 154 1048 165 970 q 286 1008 205 1008 q 593 1032 332 1008 q 354 318 354 564 q 398 174 354 230 q 510 117 441 117 q 701 212 606 117 q 879 486 795 307 q 985 892 939 817 q 1173 968 1031 968 q 1050 637 1111 889 q 990 207 990 385 q 1076 66 990 66 q 1202 124 1129 66 q 1204 100 1204 108 q 1149 14 1204 54 q 1028 -25 1093 -25 q 846 207 846 -25 q 852 302 846 239 m 855 1213 q 632 1088 718 1088 q 579 1097 611 1088 q 742 1213 696 1176 l 766 1233 q 942 1306 834 1290 q 1034 1088 964 1171 q 932 1110 964 1088 q 855 1213 901 1132 z "},"Ù":{"ha":1182,"x_min":154,"x_max":1204,"o":"m 852 302 q 452 8 648 8 q 276 86 345 8 q 207 283 207 163 q 393 918 207 522 q 288 907 336 907 q 195 939 225 907 q 154 1048 165 970 q 286 1008 205 1008 q 593 1032 332 1008 q 354 318 354 564 q 398 174 354 230 q 510 117 441 117 q 701 212 606 117 q 879 486 795 307 q 985 892 939 817 q 1173 968 1031 968 q 1050 637 1111 889 q 990 207 990 385 q 1076 66 990 66 q 1202 124 1129 66 q 1204 100 1204 108 q 1149 14 1204 54 q 1028 -25 1093 -25 q 846 207 846 -25 q 852 302 846 239 m 917 1088 q 894 1086 902 1086 q 734 1170 814 1086 q 665 1267 667 1242 q 778 1332 663 1304 q 917 1088 819 1186 z "},"ı":{"ha":616,"x_min":224,"x_max":984,"o":"m 984 555 q 674 135 831 286 q 393 -17 517 -17 q 270 33 317 -17 q 224 163 224 82 q 237 260 224 193 l 252 334 q 286 561 286 496 q 262 624 286 600 q 373 644 351 644 q 423 574 423 644 q 404 424 423 522 l 377 292 q 357 168 357 196 q 429 83 357 83 q 654 226 513 83 q 928 588 795 369 l 984 555 z "},"ˆ":{"ha":937,"x_min":447,"x_max":901,"o":"m 723 996 q 500 870 586 870 q 447 880 479 870 q 610 996 564 958 l 633 1015 q 810 1088 702 1072 q 901 870 832 953 q 800 892 831 870 q 723 996 769 914 z "},"˜":{"ha":937,"x_min":503,"x_max":922,"o":"m 564 862 q 503 917 503 880 q 547 993 503 958 q 642 1029 591 1029 q 722 1006 684 1029 l 742 993 q 804 970 779 970 q 865 1044 858 970 q 922 987 922 1027 q 878 908 922 945 q 785 870 834 870 q 692 905 753 870 l 666 921 q 613 937 639 937 q 564 875 564 937 l 564 862 z "},"ˉ":{"ha":937,"x_min":502,"x_max":905,"o":"m 502 970 q 673 949 553 949 l 736 949 q 905 970 859 949 q 865 887 893 905 q 743 870 838 870 l 688 870 q 546 890 583 870 q 502 970 509 909 z "},"˘":{"ha":937,"x_min":536,"x_max":965,"o":"m 611 1120 q 602 1080 602 1098 q 727 966 602 966 q 906 1089 889 966 q 964 1051 965 1083 q 881 927 960 984 q 711 870 802 870 q 584 920 631 870 q 536 1053 536 970 q 611 1120 536 1107 z "},"˙":{"ha":937,"x_min":565,"x_max":744,"o":"m 565 1033 l 614 1042 q 686 1052 663 1052 q 744 990 744 1052 q 737 931 744 966 l 728 886 l 697 880 q 618 867 631 867 q 570 918 570 867 q 572 944 570 931 l 576 962 q 578 986 578 973 q 565 1033 578 1014 z "},"˚":{"ha":937,"x_min":519,"x_max":802,"o":"m 696 1090 q 802 981 802 1051 q 761 901 802 932 q 654 869 719 869 q 558 896 597 869 q 519 961 519 922 q 570 1060 519 1008 q 690 1133 621 1111 q 697 1103 697 1114 q 696 1090 697 1098 m 674 1053 q 591 966 591 1001 q 650 932 591 932 q 744 983 744 932 q 674 1053 744 1010 z "},"¸":{"ha":937,"x_min":302,"x_max":530,"o":"m 486 0 l 434 -64 q 530 -147 530 -87 q 486 -231 530 -193 q 387 -268 441 -268 q 302 -192 307 -268 q 363 -205 340 -205 q 440 -155 440 -205 q 340 -96 440 -112 l 417 0 l 486 0 z "},"˝":{"ha":937,"x_min":515,"x_max":1045,"o":"m 515 871 q 606 958 547 894 l 659 1015 q 713 1062 693 1053 q 779 1071 732 1071 l 825 1071 l 692 959 q 659 930 677 946 q 515 871 595 871 m 735 870 q 827 958 767 893 l 879 1014 q 933 1061 914 1052 q 999 1070 953 1070 l 1045 1070 l 913 958 q 880 928 899 947 q 735 870 820 874 z "},"˛":{"ha":937,"x_min":309,"x_max":548,"o":"m 505 0 q 413 -101 413 -59 q 477 -142 413 -142 q 548 -124 498 -142 l 548 -136 q 433 -201 548 -201 q 309 -119 309 -201 q 420 0 309 -64 l 505 0 z "},"ˇ":{"ha":937,"x_min":447,"x_max":901,"o":"m 625 963 q 848 1088 763 1088 q 901 1079 869 1088 q 739 963 783 1000 l 715 943 q 538 870 646 886 q 447 1088 516 1005 q 548 1066 516 1088 q 625 963 579 1044 z "},"Š":{"ha":778,"x_min":90,"x_max":926,"o":"m 182 237 q 242 63 182 126 q 410 0 303 0 q 575 57 505 0 q 645 191 645 114 q 491 416 645 273 l 416 486 q 273 730 273 618 q 375 945 273 861 q 634 1029 477 1029 q 769 1003 718 1029 q 821 937 821 978 q 784 844 821 897 q 592 958 725 958 q 453 907 509 958 q 396 781 396 856 q 415 704 396 730 q 530 589 433 677 l 591 532 q 758 254 758 377 q 644 15 758 110 q 357 -79 530 -79 q 166 -25 241 -79 q 90 112 90 29 q 182 237 90 168 m 650 1180 q 873 1305 788 1305 q 926 1296 894 1305 q 764 1180 808 1217 l 740 1160 q 564 1087 671 1103 q 472 1305 541 1222 q 573 1283 541 1305 q 650 1180 604 1261 z "},"š":{"ha":596,"x_min":151,"x_max":964,"o":"m 583 239 q 606 140 606 187 q 519 -40 606 37 q 316 -117 433 -117 q 199 -82 248 -117 q 151 3 151 -47 q 217 110 151 56 q 439 239 283 164 l 385 326 q 286 575 286 486 q 435 783 286 704 q 528 694 528 747 q 410 548 528 618 l 488 406 l 548 296 q 743 428 677 373 q 909 599 809 484 l 964 566 q 583 239 818 370 m 468 178 q 269 12 269 71 q 349 -44 269 -44 q 446 -4 409 -44 q 484 100 484 37 q 468 178 484 138 m 508 963 q 731 1088 646 1088 q 785 1079 752 1088 q 622 963 667 1000 l 598 943 q 422 870 529 886 q 330 1088 399 1005 q 431 1066 399 1088 q 508 963 463 1044 z "},"¦":{"ha":418,"x_min":132,"x_max":458,"o":"m 396 554 q 286 618 286 554 q 291 658 286 633 l 309 745 l 328 846 q 356 1035 356 980 q 349 1088 356 1060 q 458 1013 458 1073 q 427 837 458 989 l 408 743 q 391 604 391 655 q 396 554 391 583 m 241 -201 q 132 -137 132 -201 q 137 -97 132 -121 l 154 -9 l 174 91 q 201 279 201 226 q 195 333 201 305 q 304 258 304 318 q 273 82 304 233 l 254 -12 q 237 -151 237 -100 q 241 -201 237 -172 z "},"Ð":{"ha":1205,"x_min":116,"x_max":1259,"o":"m 132 641 q 116 713 116 676 q 302 932 116 836 q 725 1029 489 1029 q 1116 919 973 1029 q 1259 618 1259 809 q 1037 170 1259 363 q 744 2 920 67 q 407 -63 568 -63 q 252 53 252 -63 q 279 226 252 95 l 319 431 l 298 431 q 125 408 208 431 q 143 438 137 428 q 189 491 167 479 q 262 503 210 503 l 318 502 l 334 502 l 367 669 q 378 751 378 726 q 362 795 378 775 q 488 829 452 829 q 530 780 530 829 q 509 669 530 768 l 476 502 l 488 502 q 728 525 608 502 q 684 444 706 460 q 597 427 661 427 q 541 428 571 427 q 480 431 489 431 l 462 431 l 434 290 q 406 112 406 149 q 434 57 406 71 q 537 42 461 42 q 949 192 783 42 q 1116 564 1116 342 q 995 838 1116 735 q 673 941 874 941 q 369 863 510 941 q 132 641 227 784 z "},"ð":{"ha":927,"x_min":193,"x_max":961,"o":"m 762 692 q 692 930 745 827 l 672 918 q 556 815 597 869 q 538 886 538 852 q 625 973 538 921 l 652 989 q 429 1100 564 1100 q 302 1077 372 1100 q 435 1188 336 1188 q 749 1046 628 1188 l 777 1063 q 926 1202 897 1135 q 961 1133 961 1166 q 944 1092 961 1108 q 844 1024 926 1076 l 790 989 q 903 587 903 814 q 730 125 903 298 q 427 -17 588 -17 q 257 52 321 -17 q 193 233 193 121 q 327 579 193 422 q 624 736 462 736 q 762 692 701 736 m 458 67 q 671 192 578 67 q 764 478 764 316 q 610 669 764 669 q 416 548 501 669 q 331 273 331 427 q 458 67 331 67 z "},"Ý":{"ha":811,"x_min":106,"x_max":979,"o":"m 545 469 l 478 134 q 465 50 465 70 q 473 9 465 31 q 349 -25 404 -25 q 313 3 313 -25 q 327 88 313 18 l 402 469 q 277 810 361 654 q 106 1017 193 965 q 214 1067 178 1067 q 519 534 345 1067 q 754 778 653 652 q 854 954 854 904 q 832 1003 854 982 q 923 1029 890 1029 q 979 970 979 1029 q 844 749 979 904 q 545 469 710 595 m 490 1088 q 547 1144 523 1116 l 578 1183 q 671 1271 635 1249 q 763 1293 707 1293 q 848 1284 811 1293 q 726 1200 793 1259 l 698 1177 q 490 1088 594 1088 z "},"ý":{"ha":799,"x_min":-24,"x_max":928,"o":"m 465 4 q 361 364 435 186 q 201 635 287 542 q 304 677 251 677 q 379 636 349 677 q 455 471 410 595 q 562 119 526 277 q 810 753 791 481 q 928 673 928 735 q 822 406 928 608 q 591 34 715 203 q 309 -273 449 -161 q 67 -385 168 -385 q -24 -309 -24 -385 q -7 -235 -24 -277 q 85 -258 30 -258 q 465 4 283 -258 m 466 870 q 522 926 498 899 l 554 965 q 647 1053 610 1031 q 739 1075 683 1075 q 823 1066 787 1075 q 701 983 768 1041 l 673 960 q 466 870 570 870 z "},"Þ":{"ha":954,"x_min":114,"x_max":1023,"o":"m 423 193 l 398 67 q 385 -16 385 2 q 394 -58 385 -35 q 268 -92 324 -92 q 233 -64 233 -92 q 247 21 233 -49 l 284 209 q 163 253 212 221 q 115 322 115 285 q 121 359 115 336 q 297 273 197 300 l 389 733 q 134 523 233 660 q 114 591 114 566 q 196 716 114 652 q 406 820 278 781 l 431 945 q 442 1027 442 1003 q 426 1071 442 1051 q 551 1105 515 1105 q 593 1057 593 1105 q 571 937 593 1044 l 555 855 q 705 866 635 866 q 939 804 854 866 q 1023 634 1023 743 q 856 320 1023 447 q 441 193 688 193 l 423 193 m 436 259 q 766 360 648 270 q 884 603 884 451 q 817 736 884 686 q 639 787 750 787 q 540 780 593 787 l 436 259 z "},"þ":{"ha":849,"x_min":100,"x_max":920,"o":"m 310 42 l 260 -209 q 243 -357 243 -294 q 260 -429 243 -397 q 156 -452 192 -452 q 100 -388 100 -452 q 123 -226 100 -338 l 346 895 q 247 883 286 883 q 159 911 187 883 q 114 1016 132 939 q 264 983 163 983 q 506 1029 389 983 l 429 642 q 668 753 544 753 q 847 671 775 753 q 920 467 920 589 q 787 138 920 277 q 473 0 654 0 q 310 42 374 0 m 331 147 q 498 67 399 67 q 702 168 618 67 q 786 412 786 268 q 739 580 786 515 q 614 644 691 644 q 408 537 520 644 l 331 147 z "},"×":{"ha":937,"x_min":186,"x_max":946,"o":"m 567 347 q 272 33 317 167 q 186 119 186 80 q 508 430 186 208 q 358 589 414 550 q 221 629 302 629 q 303 732 252 732 q 435 663 353 732 q 590 489 517 594 q 779 638 729 589 q 861 759 828 687 q 946 686 946 726 q 648 408 946 608 q 729 292 691 349 q 822 171 790 200 q 904 130 853 141 q 793 67 859 67 q 727 96 750 67 q 567 347 704 124 z "},"¹":{"ha":569,"x_min":186,"x_max":582,"o":"m 538 1032 l 435 578 q 476 581 458 581 q 563 561 543 581 q 582 467 582 540 q 508 494 543 494 q 416 488 470 494 l 359 482 q 257 473 272 473 q 186 576 197 473 q 252 556 224 556 q 316 562 272 556 l 404 939 q 349 937 364 937 q 280 961 300 937 q 248 1059 260 985 q 347 1017 302 1017 q 538 1032 396 1017 z "},"²":{"ha":569,"x_min":172,"x_max":631,"o":"m 631 475 q 449 508 553 508 q 287 497 370 508 l 263 494 q 219 489 228 489 q 172 534 172 489 q 176 570 172 546 q 401 741 308 644 q 495 900 495 838 q 430 949 495 949 q 256 831 340 949 q 242 903 242 884 q 310 989 242 950 q 459 1029 378 1029 q 616 920 616 1029 q 342 594 616 802 q 497 603 440 603 q 602 581 579 603 q 631 475 624 559 z "},"³":{"ha":569,"x_min":189,"x_max":615,"o":"m 267 741 q 362 812 300 812 q 401 808 376 812 q 504 906 504 836 q 429 962 504 962 q 304 886 369 962 l 303 935 q 457 1029 303 1029 q 571 998 527 1029 q 615 918 615 967 q 511 781 615 842 q 602 657 602 734 q 531 532 602 583 q 356 481 460 481 q 189 566 189 481 q 195 624 189 581 q 357 552 267 552 q 449 579 412 552 q 486 648 486 607 q 393 722 486 703 q 349 715 371 715 q 267 741 307 715 z "},"½":{"ha":1364,"x_min":234,"x_max":1464,"o":"m 586 1032 l 483 578 q 524 581 506 581 q 610 561 591 581 q 629 467 629 540 q 555 494 591 494 q 463 488 517 494 l 407 482 q 304 473 319 473 q 234 576 244 473 q 300 556 272 556 q 363 562 319 556 l 451 939 q 397 937 412 937 q 328 961 348 937 q 296 1059 308 985 q 395 1017 349 1017 q 586 1032 444 1017 m 433 -140 q 351 -38 351 -99 q 704 475 351 64 l 779 562 q 1160 972 989 808 q 1373 1084 1277 1084 q 1464 1065 1413 1084 q 912 564 1223 933 l 865 509 q 552 104 655 260 q 433 -140 448 -51 m 1331 -33 q 1149 0 1253 0 q 987 -11 1071 0 l 964 -14 q 920 -18 928 -18 q 873 26 873 -18 q 876 62 873 38 q 1101 233 1008 136 q 1195 392 1195 330 q 1130 441 1195 441 q 956 323 1041 441 q 943 395 943 376 q 1011 482 943 442 q 1159 522 1079 522 q 1317 412 1317 522 q 1043 86 1317 294 q 1198 95 1139 95 q 1302 74 1280 95 q 1331 -33 1324 52 z "},"¼":{"ha":1364,"x_min":226,"x_max":1456,"o":"m 578 1032 l 475 578 q 515 581 498 581 q 602 561 583 581 q 621 467 621 540 q 547 494 583 494 q 455 488 509 494 l 399 482 q 296 473 311 473 q 226 576 236 473 q 292 556 264 556 q 355 562 311 556 l 443 939 q 389 937 404 937 q 320 961 340 937 q 288 1059 300 985 q 387 1017 341 1017 q 578 1032 435 1017 m 425 -140 q 343 -38 343 -99 q 696 475 343 64 l 771 562 q 1152 972 981 808 q 1364 1084 1269 1084 q 1456 1065 1404 1084 q 904 564 1215 933 l 857 509 q 544 104 647 260 q 425 -140 440 -51 m 1173 164 l 1156 93 q 1148 36 1148 58 q 1164 -5 1148 18 q 1084 -25 1112 -25 q 1029 40 1029 -25 q 1040 94 1029 53 l 1056 163 q 785 127 882 148 l 800 216 q 981 511 941 373 q 1054 523 1031 523 q 1090 496 1090 523 q 920 243 1090 437 q 1078 258 1043 258 l 1109 387 q 1115 426 1115 410 q 1107 455 1115 436 q 1175 468 1155 468 q 1228 431 1228 468 q 1215 355 1228 411 l 1194 258 q 1304 242 1274 258 q 1340 182 1335 227 l 1346 128 q 1173 164 1265 164 z "},"¾":{"ha":1364,"x_min":259,"x_max":1431,"o":"m 337 741 q 432 812 370 812 q 471 808 446 812 q 574 906 574 836 q 499 962 574 962 q 374 886 439 962 l 373 935 q 527 1029 373 1029 q 641 998 597 1029 q 685 918 685 967 q 581 781 685 842 q 671 657 671 734 q 601 532 671 583 q 426 481 530 481 q 259 566 259 481 q 265 624 259 581 q 427 552 337 552 q 519 579 481 552 q 556 648 556 607 q 463 722 556 703 q 418 715 441 715 q 337 741 376 715 m 400 -140 q 319 -38 319 -99 q 671 475 319 64 l 747 562 q 1127 972 956 808 q 1340 1084 1244 1084 q 1431 1065 1379 1084 q 879 564 1190 932 l 832 509 q 518 103 620 256 q 400 -140 416 -50 m 1164 164 l 1148 93 q 1141 36 1141 58 q 1156 -5 1141 18 q 1076 -25 1104 -25 q 1022 39 1022 -25 q 1031 94 1022 54 l 1048 163 q 777 127 874 148 l 792 216 q 974 511 932 373 q 1046 523 1023 523 q 1083 496 1083 523 q 911 243 1083 437 q 1071 258 1035 258 l 1101 387 q 1107 423 1107 410 q 1099 455 1107 434 q 1167 468 1147 468 q 1220 431 1220 468 q 1207 355 1220 412 l 1185 258 q 1297 242 1266 258 q 1332 182 1327 227 l 1338 128 q 1164 164 1257 164 z "},"­":{"ha":660,"x_min":330,"x_max":682,"o":"m 330 352 q 454 471 368 471 q 488 469 470 471 l 562 461 q 604 459 583 459 q 682 489 658 459 q 587 357 661 357 q 545 359 570 357 l 494 366 q 412 372 441 372 q 330 352 370 372 z "},"¤":{"ha":937,"x_min":90,"x_max":1071,"o":"m 346 264 q 123 41 182 133 q 90 114 90 88 q 300 315 90 172 q 267 452 267 374 q 357 675 267 563 q 288 750 343 689 q 184 829 244 800 q 265 866 226 866 q 415 724 327 866 q 611 799 511 799 q 788 732 704 799 q 996 891 946 891 q 1071 838 1037 891 q 833 682 977 809 q 865 543 865 618 q 767 311 865 430 q 949 166 880 191 q 868 134 904 134 q 715 269 826 134 q 520 201 621 201 q 346 264 429 201 m 523 301 q 691 378 616 301 q 766 550 766 454 q 722 657 766 615 q 612 699 679 699 q 441 623 515 699 q 368 448 368 547 q 412 343 368 385 q 523 301 456 301 z "}}}
